<svg height="1000px" width="1000px" xmlns="http://www.w3.org/2000/svg">
  <g>
    <path d="M0 343.75c0 -59.896 21.484 -111.328 64.453 -154.297c42.969 -42.969 94.401 -64.453 154.297 -64.453c11.719 0 22.135 0.651 31.25 1.953c28.971 -40.69 65.43 -71.94 109.375 -93.75c44.922 -22.135 91.797 -33.203 140.625 -33.203c48.828 0 95.703 11.068 140.625 33.203c43.945 21.81 80.404 53.06 109.375 93.75c9.115 -1.302 19.531 -1.953 31.25 -1.953c59.896 0 111.328 21.484 154.297 64.453c42.969 42.969 64.453 94.401 64.453 154.297c0 59.896 -21.484 111.328 -64.453 154.297c-42.969 42.969 -94.401 64.453 -154.297 64.453c-27.669 0 -53.711 -4.557 -78.125 -13.672c-58.594 50.781 -126.302 76.172 -203.125 76.172c-76.823 0 -144.531 -25.391 -203.125 -76.172c-24.414 9.115 -50.456 13.672 -78.125 13.672c-59.896 0 -111.328 -21.484 -154.297 -64.453c-42.969 -42.969 -64.453 -94.401 -64.453 -154.297c0 0 0 0 0 0m59.57 392.578c-3.255 -13.021 1.628 -21.484 14.649 -25.39c0 0 23.437 -5.86 23.437 -5.86c0 -7.812 1.953 -14.974 5.86 -21.484c0 0 -17.578 -17.578 -17.578 -17.578c-9.115 -9.115 -9.115 -18.555 0 -28.321c9.44 -9.765 19.205 -10.091 29.296 -0.976c0 0 17.579 17.578 17.579 17.578c6.184 -2.279 13.346 -4.232 21.484 -5.859c0 0 5.859 -23.438 5.859 -23.438c3.906 -13.021 12.37 -17.578 25.391 -13.672c13.021 3.906 17.578 12.37 13.672 25.391c0 0 -5.86 23.437 -5.86 23.437c3.256 1.953 5.86 3.907 7.813 5.86c2.93 2.929 5.534 6.185 7.812 9.765c0 0 23.438 -7.812 23.438 -7.812c13.021 -2.279 21.484 2.929 25.391 15.625c3.906 13.021 -1.303 21.484 -15.625 25.39c0 0 -23.438 5.86 -23.438 5.86c0 7.812 -1.953 14.974 -5.859 21.484c0 0 17.578 17.578 17.578 17.578c10.416 9.44 10.742 18.88 0.976 28.321c-9.765 9.765 -19.856 10.091 -30.273 0.976c0 0 -15.625 -17.578 -15.625 -17.578c-7.487 2.279 -14.649 4.232 -21.484 5.859c0 0 -7.813 23.438 -7.813 23.438c-2.604 13.346 -10.742 18.229 -24.414 14.648c-13.672 -3.255 -18.555 -12.044 -14.649 -26.367c0 0 5.86 -23.437 5.86 -23.437c-4.883 -2.279 -10.091 -7.487 -15.625 -15.625c0 0 -23.438 7.812 -23.438 7.812c-13.02 2.279 -21.158 -2.93 -24.414 -15.625c0 0 0 0 0 0m83.985 -11.719c9.765 9.115 19.531 9.115 29.297 0c9.44 -9.114 9.114 -18.229 -0.977 -27.343c-9.44 -10.417 -18.88 -10.743 -28.32 -0.977c-9.766 9.766 -9.766 19.206 0 28.32c0 0 0 0 0 0m204.101 163.086c2.604 -9.765 7.813 -16.601 15.625 -20.508c0 0 35.156 -21.484 35.156 -21.484c-2.278 -12.37 -2.278 -24.739 0 -37.109c0 0 -35.156 -19.531 -35.156 -19.531c-7.812 -5.209 -13.021 -12.289 -15.625 -21.241c-2.604 -8.952 -1.627 -17.822 2.93 -26.611c4.557 -8.464 11.393 -13.997 20.508 -16.602c9.114 -2.604 18.229 -1.302 27.344 3.907c0 0 35.156 21.484 35.156 21.484c9.114 -9.115 19.531 -15.625 31.25 -19.531c0 0 0 -41.016 0 -41.016c0 -9.114 3.58 -17.252 10.742 -24.414c7.161 -7.161 15.299 -10.742 24.414 -10.742c9.115 0 17.253 3.581 24.414 10.742c7.162 7.162 10.742 15.3 10.742 24.414c0 0 0 41.016 0 41.016c11.719 3.906 22.136 10.416 31.25 19.531c0 0 35.157 -21.484 35.157 -21.484c9.114 -5.209 18.229 -6.511 27.343 -3.907c9.115 2.605 15.951 8.138 20.508 16.602c4.557 8.789 5.534 17.659 2.93 26.611c-2.604 8.952 -7.813 16.032 -15.625 21.24c0 0 -35.156 19.532 -35.156 19.532c2.278 12.37 2.278 24.739 0 37.109c0 0 35.156 21.484 35.156 21.484c7.812 3.907 13.021 10.743 15.625 20.508c2.604 9.766 1.627 18.555 -2.93 26.367c-4.883 8.139 -11.8 13.347 -20.752 15.625c-8.952 2.279 -17.985 0.977 -27.1 -3.906c0 0 -35.156 -19.531 -35.156 -19.531c-9.44 7.812 -19.857 13.672 -31.25 17.578c0 0 0 41.016 0 41.016c0 10.091 -3.499 18.473 -10.498 25.146c-6.998 6.673 -15.218 10.01 -24.658 10.01c-9.44 0 -17.66 -3.337 -24.658 -10.01c-6.999 -6.673 -10.498 -15.055 -10.498 -25.146c0 0 0 -41.016 0 -41.016c-11.393 -3.906 -21.81 -9.766 -31.25 -17.578c0 0 -35.156 19.531 -35.156 19.531c-9.115 4.883 -18.148 6.185 -27.1 3.906c-8.952 -2.278 -15.869 -7.486 -20.752 -15.625c-4.557 -7.812 -5.534 -16.601 -2.93 -26.367c0 0 0 0 0 0m117.188 -60.547c0 9.766 3.58 17.904 10.742 24.414c7.161 6.511 15.299 9.766 24.414 9.766c9.115 0 16.927 -3.255 23.438 -9.766c7.812 -6.51 11.718 -14.648 11.718 -24.414c0 -9.765 -3.58 -17.903 -10.742 -24.414c-7.161 -6.51 -15.299 -9.765 -24.414 -9.765c-9.115 0 -17.253 3.255 -24.414 9.765c-7.162 6.511 -10.742 14.649 -10.742 24.414c0 0 0 0 0 0m277.344 -81.054c3.906 -13.021 12.369 -17.578 25.39 -13.672c0 0 23.438 5.859 23.438 5.859c2.278 -3.58 4.882 -6.836 7.812 -9.765c1.953 -1.954 4.557 -3.907 7.813 -5.86c0 0 -5.86 -23.437 -5.86 -23.437c-3.906 -13.021 0.651 -21.485 13.672 -25.391c13.021 -3.906 21.484 0.651 25.391 13.672c0 0 5.859 23.437 5.859 23.437c8.138 1.628 15.3 3.581 21.485 5.86c0 0 17.578 -17.578 17.578 -17.578c10.091 -9.115 19.856 -8.789 29.297 0.976c9.114 9.766 9.114 19.206 0 28.321c0 0 -17.579 17.578 -17.579 17.578c3.907 6.51 5.86 13.672 5.86 21.484c0 0 23.437 5.859 23.437 5.859c13.021 3.907 17.904 12.37 14.649 25.391c-3.256 12.695 -11.394 17.904 -24.414 15.625c0 0 -23.438 -7.812 -23.438 -7.812c-5.534 8.138 -10.742 13.346 -15.625 15.625c0 0 5.859 23.437 5.859 23.437c3.907 14.323 -0.976 23.112 -14.648 26.367c-13.672 3.581 -21.81 -1.302 -24.414 -14.648c0 0 -7.813 -23.438 -7.813 -23.438c-8.138 -1.627 -15.299 -3.58 -21.484 -5.859c0 0 -15.625 17.578 -15.625 17.578c-10.417 9.115 -20.508 8.789 -30.273 -0.976c-9.766 -9.441 -9.44 -18.881 0.976 -28.321c0 0 17.578 -17.578 17.578 -17.578c-3.906 -6.185 -5.859 -13.346 -5.859 -21.484c0 0 -23.438 -5.86 -23.438 -5.86c-14.322 -3.906 -19.531 -12.369 -15.625 -25.39c0 0 0 0 0 0m84.961 41.015c9.766 9.115 19.532 9.115 29.297 0c9.44 -9.114 9.115 -18.229 -0.976 -27.343c-9.44 -10.417 -18.88 -10.743 -28.321 -0.977c-9.765 9.766 -9.765 19.206 0 28.32c0 0 0 0 0 0" />
  </g>
</svg>