<svg height="1000px" width="1000px" xmlns="http://www.w3.org/2000/svg">
  <g>
    <path d="M0 513.671875c0 -59.896 21.484 -111.328 64.453 -154.297c42.969 -42.969 94.401 -64.453 154.297 -64.453c11.719 0 22.135 0.651 31.25 1.953c0.977 -2.604 2.279 -3.906 3.906 -3.906c-2.604 -12.37 -3.906 -22.136 -3.906 -29.297c0 -48.177 16.927 -89.193 50.781 -123.047c33.854 -33.854 74.87 -50.781 123.047 -50.781c0 0 13.672 0 13.672 0c48.177 -59.896 110.677 -89.844 187.5 -89.844c76.823 0 139.323 29.948 187.5 89.844c0 0 13.672 0 13.672 0c48.177 0 89.193 16.927 123.047 50.781c33.854 33.854 50.781 74.87 50.781 123.047c0 44.271 -15.625 83.333 -46.875 117.188c31.25 39.062 46.875 83.333 46.875 132.812c0 59.896 -21.484 111.328 -64.453 154.297c-42.969 42.969 -94.401 64.453 -154.297 64.453c-27.669 0 -53.711 -4.557 -78.125 -13.672c-54.362 47.852 -118.815 72.591 -193.359 74.219c0 0 -9.766 19.531 -9.766 19.531c0 0 62.5 62.5 62.5 62.5c0 0 -187.5 125 -187.5 125c0 0 62.5 -125 62.5 -125c0 0 -62.5 -62.5 -62.5 -62.5c0 0 44.922 -29.297 44.922 -29.297c-48.177 -13.021 -89.193 -34.505 -123.047 -64.453c-24.414 9.115 -50.456 13.672 -78.125 13.672c-59.896 0 -111.328 -21.484 -154.297 -64.453c-42.969 -42.969 -64.453 -94.401 -64.453 -154.297c0 0 0 0 0 0" />
  </g>
</svg>