<svg height="1000px" width="1000px" xmlns="http://www.w3.org/2000/svg">
  <g>
    <path d="M101.5625 669.921875c0 0 0 -343.75 0 -343.75c0 0 62.5 0 62.5 0c0 0 80.078 117.188 80.078 117.188c0 0 64.453 101.562 64.453 101.562c0 0 1.953 0 1.953 0c0 0 0 -218.75 0 -218.75c0 0 68.36 0 68.36 0c0 0 0 343.75 0 343.75c0 0 -62.5 0 -62.5 0c0 0 -85.938 -128.906 -85.938 -128.906c0 0 -58.594 -87.891 -58.594 -87.891c0 0 -1.953 0 -1.953 0c0 0 0 216.797 0 216.797c0 0 -68.359 0 -68.359 0c0 0 0 0 0 0m300.781 21.484c0 0 126.953 -382.812 126.953 -382.812c0 0 50.782 0 50.782 0c0 0 -126.954 382.812 -126.954 382.812c0 0 -50.781 0 -50.781 0c0 0 0 0 0 0m185.547 -21.484c0 0 121.094 -343.75 121.094 -343.75c0 0 70.312 0 70.312 0c0 0 119.141 343.75 119.141 343.75c0 0 -74.219 0 -74.219 0c0 0 -21.484 -70.313 -21.484 -70.313c0 0 -119.141 0 -119.141 0c0 0 -23.437 70.313 -23.437 70.313c0 0 -72.266 0 -72.266 0c0 0 0 0 0 0m113.281 -126.953c0 0 83.985 0 83.985 0c0 0 -13.672 -44.922 -13.672 -44.922c0 0 -27.344 -89.844 -27.344 -89.844c0 0 -1.953 0 -1.953 0c0 0 -27.344 87.891 -27.344 87.891c0 0 -13.672 46.875 -13.672 46.875" />
  </g>
</svg>