<svg height="1000px" width="1000px" xmlns="http://www.w3.org/2000/svg">
  <g>
    <path d="M283.203125 425.78125c-8.464 -18.88 -8.464 -38.249 0 -58.105c8.464 -19.857 22.135 -33.041 41.016 -39.551c19.205 -8.138 38.899 -8.057 59.082 0.244c20.182 8.301 34.342 21.891 42.48 40.771c3.906 7.813 5.859 16.927 5.859 27.344c0 10.417 -1.953 20.182 -5.859 29.297c-7.812 17.904 -21.81 30.924 -41.992 39.062c-20.182 7.813 -40.039 7.813 -59.57 0c-19.532 -7.812 -33.204 -20.833 -41.016 -39.062c0 0 0 0 0 0m37.109 -29.297c0 9.115 3.256 16.927 9.766 23.438c6.51 6.51 14.648 9.765 24.414 9.765c9.766 0 17.904 -3.255 24.414 -9.765c6.511 -6.511 9.766 -14.323 9.766 -23.438c0 -9.114 -3.255 -16.927 -9.766 -23.437c-6.51 -6.511 -14.648 -9.766 -24.414 -9.766c-9.766 0 -17.904 3.255 -24.414 9.766c-6.51 6.51 -9.766 14.323 -9.766 23.437c0 0 0 0 0 0m166.016 169.922c0 0 0 -128.906 0 -128.906c0 -34.18 13.265 -61.28 39.795 -81.299c26.53 -20.02 56.885 -30.029 91.064 -30.029c45.899 0 81.055 11.067 105.469 33.203c0 0 -33.203 52.734 -33.203 52.734c-18.229 -15.625 -41.667 -23.437 -70.313 -23.437c-17.252 0 -32.307 5.045 -45.166 15.136c-12.858 10.091 -19.287 25.879 -19.287 47.364c0 0 0 99.609 0 99.609c0 21.484 6.429 37.272 19.287 47.363c12.859 10.091 27.914 15.137 45.167 15.137c25.716 0 49.804 -7.812 72.265 -23.437c0 0 31.25 52.734 31.25 52.734c-28.971 23.437 -63.476 35.156 -103.515 35.156c-35.157 0 -66.081 -10.091 -92.774 -30.273c-26.693 -20.183 -40.039 -47.201 -40.039 -81.055c0 0 0 0 0 0" />
  </g>
</svg>