<svg height="1000px" width="1000px" xmlns="http://www.w3.org/2000/svg">
  <g>
    <path d="M1.953125 718.75c0 -59.896 21.484 -111.328 64.453 -154.297c42.969 -42.969 94.401 -64.453 154.297 -64.453c11.719 0 22.135 0.651 31.25 1.953c52.083 -71.614 122.396 -113.281 210.938 -125c-6.185 -20.833 -9.278 -42.155 -9.278 -63.965c0 -20.508 2.767 -41.504 8.301 -62.988c11.068 -44.271 32.226 -82.031 63.477 -113.281c26.041 -26.042 57.291 -45.573 93.75 -58.594c4.557 -1.953 8.789 -2.93 12.695 -2.93c7.487 0 14.323 3.256 20.508 9.766c6.51 6.836 9.765 14.16 9.765 21.973c0 3.255 -0.651 6.673 -1.953 10.254c-8.138 21.809 -12.207 43.619 -12.207 65.429c0 13.021 1.465 26.042 4.395 39.063c7.812 34.505 24.414 64.778 49.804 90.82c25.716 26.042 55.99 42.969 90.821 50.781c13.346 2.93 26.53 4.395 39.55 4.395c22.136 0 44.108 -4.069 65.918 -12.207c3.581 -1.302 6.999 -1.953 10.254 -1.953c7.813 0 15.137 3.255 21.973 9.765c6.51 6.185 9.766 13.021 9.766 20.508c0 3.906 -0.977 8.138 -2.93 12.695c-13.021 36.459 -32.552 67.709 -58.594 93.75c-5.208 5.209 -14.323 12.37 -27.344 21.485c44.271 13.997 80.404 40.039 108.399 78.125c27.995 37.76 41.992 80.729 41.992 128.906c0 59.896 -21.484 111.328 -64.453 154.297c-42.969 42.969 -94.401 64.453 -154.297 64.453c-27.669 0 -53.711 -4.557 -78.125 -13.672c-58.594 50.781 -126.302 76.172 -203.125 76.172c-76.823 0 -144.531 -25.391 -203.125 -76.172c-24.414 9.115 -50.456 13.672 -78.125 13.672c-59.896 0 -111.328 -21.484 -154.297 -64.453c-42.969 -42.969 -64.453 -94.401 -64.453 -154.297c0 0 0 0 0 0m62.5 0c0 42.969 15.299 79.753 45.898 110.352c30.599 30.599 67.383 45.898 110.352 45.898c32.552 0 62.5 -9.766 89.844 -29.297c50.781 61.198 114.583 91.797 191.406 91.797c76.823 0 140.625 -30.599 191.406 -91.797c27.344 19.531 57.292 29.297 89.844 29.297c42.969 0 79.753 -15.299 110.352 -45.898c30.599 -30.599 45.898 -67.383 45.898 -110.352c0 -42.969 -15.299 -79.753 -45.898 -110.352c-30.599 -30.599 -67.383 -45.898 -110.352 -45.898c-20.833 0 -40.365 3.906 -58.594 11.719c-1.302 -1.302 -2.929 -3.581 -4.883 -6.836c-1.953 -3.255 -2.929 -5.534 -2.929 -6.836c-17.253 -26.367 -36.784 -49.154 -58.594 -68.36c-25.391 -19.205 -53.385 -33.528 -83.984 -42.968c-23.438 -7.813 -47.526 -11.719 -72.266 -11.719c-9.115 0 -13.672 0.651 -13.672 1.953c-45.898 1.628 -86.914 14.649 -123.047 39.063c-36.133 24.739 -64.778 56.64 -85.937 95.703c-18.229 -7.813 -37.761 -11.719 -58.594 -11.719c-42.969 0 -79.753 15.299 -110.352 45.898c-30.599 30.599 -45.898 67.383 -45.898 110.352c0 0 0 0 0 0m455.078 -445.312c-2.93 13.671 -4.394 27.18 -4.394 40.527c0 21.81 4.069 42.806 12.207 62.988c89.518 6.185 162.435 45.248 218.75 117.188c43.294 -10.417 77.799 -31.901 103.515 -64.453c-5.208 0.325 -10.254 0.488 -15.136 0.488c-67.709 0 -126.465 -24.577 -176.27 -73.731c-48.503 -48.502 -72.754 -105.468 -72.754 -170.898c0 -6.511 0.163 -13.021 0.488 -19.531c-4.882 3.58 -10.091 8.138 -15.625 13.672c-26.041 26.041 -42.968 57.291 -50.781 93.75c0 0 0 0 0 0" />
  </g>
</svg>