<svg height="1000px" width="1000px" xmlns="http://www.w3.org/2000/svg">
  <g>
    <path d="M93.75 841.796875c0 -9.115 2.93 -16.602 8.789 -22.461c5.859 -5.859 13.346 -8.789 22.461 -8.789c0 0 750 0 750 0c9.115 0 16.602 2.93 22.461 8.789c5.859 5.859 8.789 13.346 8.789 22.461c0 9.115 -2.93 16.602 -8.789 22.461c-5.859 5.859 -13.346 8.789 -22.461 8.789c0 0 -750 0 -750 0c-9.115 0 -16.602 -2.93 -22.461 -8.789c-5.859 -5.859 -8.789 -13.346 -8.789 -22.461c0 0 0 0 0 0m0 -125c0 -9.115 2.93 -16.602 8.789 -22.461c5.859 -5.859 13.346 -8.789 22.461 -8.789c0 0 750 0 750 0c9.115 0 16.602 2.93 22.461 8.789c5.859 5.859 8.789 13.346 8.789 22.461c0 9.115 -2.93 16.602 -8.789 22.461c-5.859 5.859 -13.346 8.789 -22.461 8.789c0 0 -750 0 -750 0c-9.115 0 -16.602 -2.93 -22.461 -8.789c-5.859 -5.859 -8.789 -13.346 -8.789 -22.461c0 0 0 0 0 0m0 -125c0 -9.115 2.93 -16.602 8.789 -22.461c5.859 -5.859 13.346 -8.789 22.461 -8.789c0 0 750 0 750 0c9.115 0 16.602 2.93 22.461 8.789c5.859 5.859 8.789 13.346 8.789 22.461c0 9.115 -2.93 16.602 -8.789 22.461c-5.859 5.859 -13.346 8.789 -22.461 8.789c0 0 -750 0 -750 0c-9.115 0 -16.602 -2.93 -22.461 -8.789c-5.859 -5.859 -8.789 -13.346 -8.789 -22.461c0 0 0 0 0 0m188.477 -253.906c5.859 -58.594 29.622 -108.724 71.289 -150.391c26.041 -26.042 57.291 -45.573 93.75 -58.594c3.906 -1.302 7.649 -1.953 11.23 -1.953c8.138 0 15.462 3.255 21.973 9.766c6.51 6.51 9.765 13.509 9.765 20.996c0 3.255 -0.651 6.673 -1.953 10.254c-8.138 21.81 -12.207 43.782 -12.207 65.918c0 13.346 1.465 26.53 4.395 39.551c7.812 34.83 24.739 65.104 50.781 90.82c26.042 25.391 56.315 41.992 90.82 49.805c13.021 2.929 26.042 4.394 39.063 4.394c0 0 65.43 -12.207 65.43 -12.207c3.58 -1.302 6.998 -1.953 10.253 -1.953c7.813 0 14.893 3.255 21.241 9.766c6.347 6.51 9.521 13.834 9.521 21.972c0 3.581 -0.651 7.325 -1.953 11.231c-6.51 18.554 -14.323 35.482 -23.437 50.781c0 0 -82.032 0 -82.032 0c10.417 -9.115 16.276 -14.974 17.578 -17.578c-6.51 0.325 -13.02 0.488 -19.531 0.488c-65.755 0 -122.721 -24.251 -170.898 -72.754c-49.154 -49.804 -73.731 -108.561 -73.731 -176.269c0 -4.883 0.163 -9.929 0.489 -15.137c-4.883 3.581 -10.092 8.138 -15.625 13.672c-36.459 36.458 -54.688 80.729 -54.688 132.812c0 52.084 18.229 96.355 54.688 132.813c0 0 1.953 1.953 1.953 1.953c0 0 -80.078 0 -80.078 0c-26.368 -40.69 -39.551 -84.961 -39.551 -132.813c0 -9.114 0.488 -18.229 1.465 -27.343c0 0 0 0 0 0" />
  </g>
</svg>