<svg height="1000px" width="1000px" xmlns="http://www.w3.org/2000/svg">
  <g>
    <path d="M0 343.75c0 -59.896 21.484 -111.328 64.453 -154.297c42.969 -42.969 94.401 -64.453 154.297 -64.453c11.719 0 22.135 0.651 31.25 1.953c28.971 -40.69 65.43 -71.94 109.375 -93.75c44.922 -22.135 91.797 -33.203 140.625 -33.203c48.828 0 95.703 11.068 140.625 33.203c43.945 21.81 80.404 53.06 109.375 93.75c9.115 -1.302 19.531 -1.953 31.25 -1.953c59.896 0 111.328 21.484 154.297 64.453c42.969 42.969 64.453 94.401 64.453 154.297c0 59.896 -21.484 111.328 -64.453 154.297c-42.969 42.969 -94.401 64.453 -154.297 64.453c-27.669 0 -53.711 -4.557 -78.125 -13.672c-30.924 27.018 -68.034 47.201 -111.328 60.547c0 0 25.39 -78.125 25.39 -78.125c30.274 -17.578 55.014 -37.76 74.219 -60.547c27.344 19.531 57.292 29.297 89.844 29.297c42.969 0 79.753 -15.299 110.352 -45.898c30.599 -30.599 45.898 -67.383 45.898 -110.352c0 -42.969 -15.299 -79.753 -45.898 -110.352c-30.599 -30.599 -67.383 -45.898 -110.352 -45.898c-20.833 0 -40.365 3.906 -58.594 11.719c-21.81 -41.341 -52.409 -74.545 -91.797 -99.61c-38.737 -24.739 -82.356 -37.109 -130.859 -37.109c-48.503 0 -92.122 12.37 -130.859 37.109c-39.388 25.065 -69.987 58.269 -91.797 99.61c-18.229 -7.813 -37.761 -11.719 -58.594 -11.719c-42.969 0 -79.753 15.299 -110.352 45.898c-30.599 30.599 -45.898 67.383 -45.898 110.352c0 42.969 15.299 79.753 45.898 110.352c30.599 30.599 67.383 45.898 110.352 45.898c32.552 0 62.5 -9.766 89.844 -29.297c29.622 36.458 68.685 62.5 117.187 78.125c0 0 -48.828 48.828 -48.828 48.828c-31.901 -13.346 -58.594 -29.622 -80.078 -48.828c-24.414 9.115 -50.456 13.672 -78.125 13.672c-59.896 0 -111.328 -21.484 -154.297 -64.453c-42.969 -42.969 -64.453 -94.401 -64.453 -154.297c0 0 0 0 0 0m375 593.75c0 0 62.5 -187.5 62.5 -187.5c0 0 -62.5 -62.5 -62.5 -62.5c0 0 187.5 -187.5 187.5 -187.5c0 0 -62.5 187.5 -62.5 187.5c0 0 62.5 62.5 62.5 62.5c0 0 -187.5 187.5 -187.5 187.5" />
  </g>
</svg>