<svg height="1000px" width="1000px" xmlns="http://www.w3.org/2000/svg">
  <g>
    <path d="M0 532.2265625c0 -8.464 2.93 -15.625 8.789 -21.484c5.859 -5.86 13.346 -8.789 22.461 -8.789c0 0 250 0 250 0c9.115 0 16.602 2.929 22.461 8.789c5.859 5.859 8.789 13.02 8.789 21.484c0 8.789 -3.011 16.357 -9.033 22.705c-6.022 6.348 -13.428 9.522 -22.217 9.522c0 0 -250 0 -250 0c-8.789 0 -16.195 -3.174 -22.217 -9.522c-6.022 -6.348 -9.033 -13.916 -9.033 -22.705c0 0 0 0 0 0m0 -125c0 -8.464 2.93 -15.625 8.789 -21.484c5.859 -5.86 13.346 -8.789 22.461 -8.789c0 0 125 0 125 0c9.115 0 16.602 2.929 22.461 8.789c5.859 5.859 8.789 13.02 8.789 21.484c0 8.789 -3.011 16.357 -9.033 22.705c-6.022 6.348 -13.428 9.522 -22.217 9.522c0 0 -125 0 -125 0c-8.789 0 -16.195 -3.174 -22.217 -9.522c-6.022 -6.348 -9.033 -13.916 -9.033 -22.705c0 0 0 0 0 0m62.5 -125c0 -8.464 2.93 -15.625 8.789 -21.484c5.859 -5.86 13.346 -8.789 22.461 -8.789c0 0 125 0 125 0c9.115 0 16.602 2.929 22.461 8.789c5.859 5.859 8.789 13.02 8.789 21.484c0 8.789 -3.011 16.357 -9.033 22.705c-6.022 6.348 -13.428 9.522 -22.217 9.522c0 0 -125 0 -125 0c-8.789 0 -16.195 -3.174 -22.217 -9.522c-6.022 -6.348 -9.033 -13.916 -9.033 -22.705c0 0 0 0 0 0m208.984 49.805c0 -51.758 17.904 -96.354 53.711 -133.789c35.808 -37.435 79.753 -57.292 131.836 -59.571c49.479 -50.781 109.05 -76.172 178.711 -76.172c69.662 0 129.232 25.391 178.711 76.172c52.083 2.279 96.029 22.136 131.836 59.571c35.807 37.435 53.711 82.031 53.711 133.789c0 54.687 -18.88 100.911 -56.641 138.672c-37.76 37.76 -83.984 56.64 -138.672 56.64c-11.718 0 -22.786 -0.651 -33.203 -1.953c-41.666 26.042 -86.914 39.063 -135.742 39.063c-48.828 0 -94.075 -13.021 -135.742 -39.063c-10.417 1.302 -22.135 1.953 -35.156 1.953c-53.386 0 -98.959 -18.88 -136.719 -56.64c-37.76 -37.761 -56.641 -83.985 -56.641 -138.672c0 0 0 0 0 0m62.5 0c0 36.458 12.696 67.708 38.086 93.75c25.391 26.041 56.315 39.062 92.774 39.062c17.578 0 33.203 -2.604 46.875 -7.812c36.784 29.948 78.125 44.922 124.023 44.922c45.899 0 86.589 -14.974 122.07 -44.922c15.3 5.208 30.925 7.812 46.875 7.812c36.459 0 67.709 -13.021 93.75 -39.062c26.042 -26.042 39.063 -57.292 39.063 -93.75c0 -36.459 -13.021 -67.383 -39.063 -92.774c-26.041 -25.39 -57.291 -38.086 -93.75 -38.086c0 0 -17.578 0 -17.578 0c-37.76 -50.781 -88.216 -76.172 -151.367 -76.172c-63.151 0 -113.607 25.391 -151.367 76.172c0 0 -19.531 0 -19.531 0c-36.459 0 -67.383 12.696 -92.774 38.086c-25.39 25.391 -38.086 56.315 -38.086 92.774c0 0 0 0 0 0m103.516 417.968c0 -23.112 20.833 -64.778 62.5 -125c0 0 15.625 23.438 15.625 23.438c11.719 17.904 22.135 36.133 31.25 54.687c10.417 21.485 15.625 37.11 15.625 46.875c0 16.928 -6.185 31.576 -18.555 43.946c-12.369 12.37 -27.018 18.554 -43.945 18.554c-16.927 0 -31.576 -6.184 -43.945 -18.554c-12.37 -12.37 -18.555 -27.018 -18.555 -43.946c0 0 0 0 0 0m250 125c0 -23.112 20.833 -64.778 62.5 -125c0 0 15.625 23.438 15.625 23.438c11.719 17.904 22.135 36.133 31.25 54.687c10.417 21.485 15.625 37.11 15.625 46.875c0 16.928 -6.185 31.576 -18.555 43.946c-12.369 12.37 -27.018 18.554 -43.945 18.554c-16.927 0 -31.576 -6.184 -43.945 -18.554c-12.37 -12.37 -18.555 -27.018 -18.555 -43.946c0 0 0 0 0 0" />
  </g>
</svg>