<svg height="1000px" width="1000px" xmlns="http://www.w3.org/2000/svg">
  <g>
    <path d="M0 343.75c0 -59.896 21.484 -111.328 64.453 -154.297c42.969 -42.969 94.401 -64.453 154.297 -64.453c11.719 0 22.135 0.651 31.25 1.953c28.971 -40.69 65.43 -71.94 109.375 -93.75c44.922 -22.135 91.797 -33.203 140.625 -33.203c48.828 0 95.703 11.068 140.625 33.203c43.945 21.81 80.404 53.06 109.375 93.75c9.115 -1.302 19.531 -1.953 31.25 -1.953c59.896 0 111.328 21.484 154.297 64.453c42.969 42.969 64.453 94.401 64.453 154.297c0 59.896 -21.484 111.328 -64.453 154.297c-42.969 42.969 -94.401 64.453 -154.297 64.453c-27.669 0 -53.711 -4.557 -78.125 -13.672c-58.594 50.781 -126.302 76.172 -203.125 76.172c-76.823 0 -144.531 -25.391 -203.125 -76.172c-24.414 9.115 -50.456 13.672 -78.125 13.672c-59.896 0 -111.328 -21.484 -154.297 -64.453c-42.969 -42.969 -64.453 -94.401 -64.453 -154.297c0 0 0 0 0 0m62.5 0c0 42.969 15.299 79.753 45.898 110.352c30.599 30.599 67.383 45.898 110.352 45.898c32.552 0 62.5 -9.766 89.844 -29.297c50.781 61.198 114.583 91.797 191.406 91.797c76.823 0 140.625 -30.599 191.406 -91.797c27.344 19.531 57.292 29.297 89.844 29.297c42.969 0 79.753 -15.299 110.352 -45.898c30.599 -30.599 45.898 -67.383 45.898 -110.352c0 -42.969 -15.299 -79.753 -45.898 -110.352c-30.599 -30.599 -67.383 -45.898 -110.352 -45.898c-20.833 0 -40.365 3.906 -58.594 11.719c-21.81 -41.341 -52.409 -74.545 -91.797 -99.61c-38.737 -24.739 -82.356 -37.109 -130.859 -37.109c-48.503 0 -92.122 12.37 -130.859 37.109c-39.388 25.065 -69.987 58.269 -91.797 99.61c-18.229 -7.813 -37.761 -11.719 -58.594 -11.719c-42.969 0 -79.753 15.299 -110.352 45.898c-30.599 30.599 -45.898 67.383 -45.898 110.352c0 0 0 0 0 0m285.156 543.945c2.604 -9.765 7.813 -16.601 15.625 -20.508c0 0 35.157 -21.484 35.157 -21.484c-1.303 -6.185 -1.954 -12.37 -1.954 -18.555c0 -6.184 0.651 -12.369 1.954 -18.554c0 0 -35.157 -19.532 -35.157 -19.532c-7.812 -5.208 -13.021 -12.369 -15.625 -21.484c-0.976 -3.255 -1.465 -6.348 -1.465 -9.277c0 -5.534 1.465 -11.231 4.395 -17.09c4.557 -8.464 11.393 -13.997 20.508 -16.602c9.114 -2.604 18.229 -1.302 27.344 3.907c0 0 35.156 21.484 35.156 21.484c9.114 -9.115 19.531 -15.625 31.25 -19.531c0 0 0 -41.016 0 -41.016c0 -9.114 3.58 -17.252 10.742 -24.414c7.161 -7.161 15.299 -10.742 24.414 -10.742c9.115 0 17.253 3.581 24.414 10.742c7.162 7.162 10.742 15.3 10.742 24.414c0 0 0 41.016 0 41.016c11.719 3.906 22.136 10.416 31.25 19.531c0 0 35.157 -21.484 35.157 -21.484c9.114 -5.209 18.229 -6.511 27.343 -3.907c9.115 2.605 15.951 8.138 20.508 16.602c2.93 5.534 4.395 11.23 4.395 17.09c0 2.929 -0.489 6.022 -1.465 9.277c-2.604 9.115 -7.813 16.276 -15.625 21.485c0 0 -35.156 19.531 -35.156 19.531c1.302 6.185 1.953 12.37 1.953 18.554c0 6.185 -0.651 12.37 -1.953 18.555c0 0 35.156 21.485 35.156 21.485c7.812 3.906 13.021 10.742 15.625 20.507c0.976 3.581 1.465 6.999 1.465 10.254c0 5.86 -1.465 11.231 -4.395 16.114c-4.883 8.138 -11.8 13.346 -20.752 15.625c-8.952 2.278 -17.985 0.976 -27.099 -3.907c0 0 -35.157 -19.531 -35.157 -19.531c-9.44 7.813 -19.857 13.672 -31.25 17.578c0 0 0 41.016 0 41.016c0 10.091 -3.499 18.473 -10.498 25.146c-6.998 6.673 -15.218 10.01 -24.658 10.01c-9.44 0 -17.66 -3.337 -24.658 -10.01c-6.999 -6.673 -10.498 -15.055 -10.498 -25.146c0 0 0 -41.016 0 -41.016c-11.393 -3.906 -21.81 -9.765 -31.25 -17.578c0 0 -35.156 19.531 -35.156 19.531c-9.115 4.883 -18.148 6.185 -27.1 3.907c-8.952 -2.279 -15.869 -7.487 -20.752 -15.625c-2.93 -4.883 -4.395 -10.254 -4.395 -16.114c0 -3.255 0.489 -6.673 1.465 -10.254c0 0 0 0 0 0m117.188 -60.547c0 9.766 3.58 17.904 10.742 24.415c7.161 6.51 15.299 9.765 24.414 9.765c9.115 0 16.927 -3.255 23.438 -9.765c7.812 -6.511 11.718 -14.649 11.718 -24.415c0 -9.765 -3.58 -17.903 -10.742 -24.414c-7.161 -6.51 -15.299 -9.765 -24.414 -9.765c-9.115 0 -17.253 3.255 -24.414 9.765c-7.162 6.511 -10.742 14.649 -10.742 24.414c0 0 0 0 0 0" />
  </g>
</svg>