<svg height="1000px" width="1000px" xmlns="http://www.w3.org/2000/svg">
  <g>
    <path d="M0 343.75c0 -59.896 21.484 -111.328 64.453 -154.297c42.969 -42.969 94.401 -64.453 154.297 -64.453c11.719 0 22.135 0.651 31.25 1.953c28.971 -40.69 65.43 -71.94 109.375 -93.75c44.922 -22.135 91.797 -33.203 140.625 -33.203c48.828 0 95.703 11.068 140.625 33.203c43.945 21.81 80.404 53.06 109.375 93.75c9.115 -1.302 19.531 -1.953 31.25 -1.953c59.896 0 111.328 21.484 154.297 64.453c42.969 42.969 64.453 94.401 64.453 154.297c0 59.896 -21.484 111.328 -64.453 154.297c-42.969 42.969 -94.401 64.453 -154.297 64.453c-27.669 0 -53.711 -4.557 -78.125 -13.672c-58.594 50.781 -126.302 76.172 -203.125 76.172c-76.823 0 -144.531 -25.391 -203.125 -76.172c-24.414 9.115 -50.456 13.672 -78.125 13.672c-59.896 0 -111.328 -21.484 -154.297 -64.453c-42.969 -42.969 -64.453 -94.401 -64.453 -154.297c0 0 0 0 0 0m59.57 392.578c-0.651 -2.604 -0.976 -5.045 -0.976 -7.324c0 -9.115 5.208 -15.137 15.625 -18.067c0 0 23.437 -5.859 23.437 -5.859c0 -7.812 1.953 -14.974 5.86 -21.484c0 0 -17.578 -17.578 -17.578 -17.578c-4.558 -4.558 -6.836 -9.196 -6.836 -13.916c0 -4.72 2.278 -9.522 6.836 -14.405c4.882 -5.208 9.928 -7.812 15.136 -7.812c4.558 0 9.278 2.278 14.16 6.836c0 0 17.579 17.578 17.579 17.578c6.184 -2.279 13.346 -4.232 21.484 -5.859c0 0 5.859 -23.438 5.859 -23.438c2.93 -10.091 8.627 -15.137 17.09 -15.137c2.604 0 5.371 0.489 8.301 1.465c10.091 2.93 15.137 8.626 15.137 17.09c0 2.604 -0.489 5.371 -1.465 8.301c0 0 -5.86 23.437 -5.86 23.437c3.256 1.953 5.86 3.907 7.813 5.86c2.93 2.929 5.534 6.185 7.812 9.765c0 0 23.438 -7.812 23.438 -7.812c1.953 -0.326 3.906 -0.489 5.859 -0.489c9.766 0 16.276 5.372 19.532 16.114c0.976 2.929 1.464 5.534 1.464 7.812c0 8.789 -5.696 14.649 -17.089 17.578c0 0 -23.438 5.86 -23.438 5.86c0 7.812 -1.953 14.974 -5.859 21.484c0 0 17.578 17.578 17.578 17.578c5.534 4.883 8.301 9.766 8.301 14.649c0 4.557 -2.442 9.114 -7.325 13.672c-5.208 5.208 -10.416 7.812 -15.625 7.812c-4.883 0 -9.765 -2.279 -14.648 -6.836c0 0 -15.625 -17.578 -15.625 -17.578c-7.487 2.279 -14.649 4.232 -21.484 5.859c0 0 -7.813 23.438 -7.813 23.438c-1.953 10.417 -7.487 15.625 -16.602 15.625c-2.278 0 -4.882 -0.326 -7.812 -0.977c-10.742 -2.604 -16.113 -8.463 -16.113 -17.578c0 -2.604 0.488 -5.534 1.465 -8.789c0 0 5.859 -23.437 5.859 -23.437c-4.883 -2.279 -10.091 -7.487 -15.625 -15.625c0 0 -23.438 7.812 -23.438 7.812c-1.953 0.326 -3.743 0.488 -5.371 0.488c-10.091 0 -16.439 -5.371 -19.043 -16.113c0 0 0 0 0 0m2.93 -392.578c0 42.969 15.299 79.753 45.898 110.352c30.599 30.599 67.383 45.898 110.352 45.898c32.552 0 62.5 -9.766 89.844 -29.297c50.781 61.198 114.583 91.797 191.406 91.797c76.823 0 140.625 -30.599 191.406 -91.797c27.344 19.531 57.292 29.297 89.844 29.297c42.969 0 79.753 -15.299 110.352 -45.898c30.599 -30.599 45.898 -67.383 45.898 -110.352c0 -42.969 -15.299 -79.753 -45.898 -110.352c-30.599 -30.599 -67.383 -45.898 -110.352 -45.898c-20.833 0 -40.365 3.906 -58.594 11.719c-21.81 -41.341 -52.409 -74.545 -91.797 -99.61c-38.737 -24.739 -82.356 -37.109 -130.859 -37.109c-48.503 0 -92.122 12.37 -130.859 37.109c-39.388 25.065 -69.987 58.269 -91.797 99.61c-18.229 -7.813 -37.761 -11.719 -58.594 -11.719c-42.969 0 -79.753 15.299 -110.352 45.898c-30.599 30.599 -45.898 67.383 -45.898 110.352c0 0 0 0 0 0m81.055 380.859c4.883 4.558 9.765 6.836 14.648 6.836c0 0 14.649 -6.836 14.649 -6.836c4.557 -4.557 6.836 -8.951 6.836 -13.183c0 -4.558 -2.605 -9.278 -7.813 -14.16c-4.883 -5.534 -9.766 -8.301 -14.648 -8.301c0 0 -13.672 7.324 -13.672 7.324c-4.883 4.883 -7.325 9.684 -7.325 14.404c0 4.72 2.442 9.359 7.325 13.916c0 0 0 0 0 0m204.101 163.086c2.604 -9.765 7.813 -16.601 15.625 -20.508c0 0 35.157 -21.484 35.157 -21.484c-1.303 -6.185 -1.954 -12.37 -1.954 -18.555c0 -6.184 0.651 -12.369 1.954 -18.554c0 0 -35.157 -19.532 -35.157 -19.532c-7.812 -5.208 -13.021 -12.369 -15.625 -21.484c-0.976 -3.255 -1.465 -6.348 -1.465 -9.277c0 -5.534 1.465 -11.231 4.395 -17.09c4.557 -8.464 11.393 -13.997 20.508 -16.602c9.114 -2.604 18.229 -1.302 27.344 3.907c0 0 35.156 21.484 35.156 21.484c9.114 -9.115 19.531 -15.625 31.25 -19.531c0 0 0 -41.016 0 -41.016c0 -9.114 3.58 -17.252 10.742 -24.414c7.161 -7.161 15.299 -10.742 24.414 -10.742c9.115 0 17.253 3.581 24.414 10.742c7.162 7.162 10.742 15.3 10.742 24.414c0 0 0 41.016 0 41.016c11.719 3.906 22.136 10.416 31.25 19.531c0 0 35.157 -21.484 35.157 -21.484c9.114 -5.209 18.229 -6.511 27.343 -3.907c9.115 2.605 15.951 8.138 20.508 16.602c4.557 8.789 5.534 17.659 2.93 26.611c-2.604 8.952 -7.813 16.032 -15.625 21.24c0 0 -35.156 19.532 -35.156 19.532c1.302 6.185 1.953 12.37 1.953 18.554c0 6.185 -0.651 12.37 -1.953 18.555c0 0 35.156 21.485 35.156 21.485c7.812 3.906 13.021 10.742 15.625 20.507c2.604 9.766 1.627 18.555 -2.93 26.368c-4.883 8.138 -11.8 13.346 -20.752 15.625c-8.952 2.278 -17.985 0.976 -27.099 -3.907c0 0 -35.157 -19.531 -35.157 -19.531c-9.44 7.813 -19.857 13.672 -31.25 17.578c0 0 0 41.016 0 41.016c0 10.091 -3.499 18.473 -10.498 25.146c-6.998 6.673 -15.218 10.01 -24.658 10.01c-9.44 0 -17.66 -3.337 -24.658 -10.01c-6.999 -6.673 -10.498 -15.055 -10.498 -25.146c0 0 0 -41.016 0 -41.016c-11.393 -3.906 -21.81 -9.765 -31.25 -17.578c0 0 -35.156 19.531 -35.156 19.531c-9.115 4.883 -18.148 6.185 -27.1 3.907c-8.952 -2.279 -15.869 -7.487 -20.752 -15.625c-2.93 -4.883 -4.395 -10.254 -4.395 -16.114c0 -3.255 0.489 -6.673 1.465 -10.254c0 0 0 0 0 0m117.188 -60.547c0 9.766 3.58 17.904 10.742 24.415c7.161 6.51 15.299 9.765 24.414 9.765c9.115 0 16.927 -3.255 23.438 -9.765c7.812 -6.511 11.718 -14.649 11.718 -24.415c0 -9.765 -3.58 -17.903 -10.742 -24.414c-7.161 -6.51 -15.299 -9.765 -24.414 -9.765c-9.115 0 -17.253 3.255 -24.414 9.765c-7.162 6.511 -10.742 14.649 -10.742 24.414c0 0 0 0 0 0m277.344 -81.054c2.929 -10.091 8.626 -15.137 17.089 -15.137c2.605 0 5.371 0.488 8.301 1.465c0 0 23.438 5.859 23.438 5.859c2.278 -3.58 4.882 -6.836 7.812 -9.765c1.953 -1.953 4.557 -3.907 7.813 -5.86c0 0 -5.86 -23.437 -5.86 -23.437c-0.976 -2.93 -1.465 -5.697 -1.465 -8.301c0 -8.464 5.046 -14.16 15.137 -17.09c2.93 -0.976 5.697 -1.465 8.301 -1.465c8.463 0 14.16 5.046 17.09 15.137c0 0 5.859 23.438 5.859 23.438c8.138 1.627 15.3 3.58 21.485 5.859c0 0 17.578 -17.578 17.578 -17.578c4.882 -4.558 9.602 -6.836 14.16 -6.836c5.208 0 10.254 2.604 15.137 7.812c4.557 4.883 6.835 9.685 6.835 14.405c0 4.72 -2.278 9.358 -6.835 13.916c0 0 -17.579 17.578 -17.579 17.578c3.907 6.51 5.86 13.672 5.86 21.484c0 0 23.437 5.86 23.437 5.86c10.417 3.255 15.625 9.277 15.625 18.066c0 2.279 -0.325 4.72 -0.976 7.324c-2.604 10.742 -8.952 16.113 -19.043 16.113c-1.628 0 -3.418 -0.162 -5.371 -0.488c0 0 -23.438 -7.812 -23.438 -7.812c-5.534 8.138 -10.742 13.346 -15.625 15.625c0 0 5.86 23.437 5.86 23.437c0.976 3.255 1.464 6.185 1.464 8.789c0 9.115 -5.371 14.974 -16.113 17.578c-2.93 0.651 -5.534 0.977 -7.812 0.977c-8.79 0 -14.323 -5.208 -16.602 -15.625c0 0 -7.813 -23.438 -7.813 -23.438c-8.138 -1.627 -15.299 -3.58 -21.484 -5.859c0 0 -15.625 17.578 -15.625 17.578c-4.883 4.557 -9.766 6.836 -14.648 6.836c-5.209 0 -10.417 -2.604 -15.625 -7.812c-4.883 -4.558 -7.325 -9.115 -7.325 -13.672c0 -4.883 2.767 -9.766 8.301 -14.649c0 0 17.578 -17.578 17.578 -17.578c-3.906 -6.185 -5.859 -13.346 -5.859 -21.484c0 0 -23.437 -5.86 -23.437 -5.86c-11.394 -2.929 -17.09 -8.789 -17.09 -17.578c0 -2.278 0.488 -4.883 1.465 -7.812c0 0 0 0 0 0m84.96 41.015c4.883 4.558 9.766 6.836 14.649 6.836c0 0 14.648 -6.836 14.648 -6.836c4.558 -4.557 6.836 -8.951 6.836 -13.183c0 -4.558 -2.604 -9.278 -7.812 -14.16c-4.883 -5.534 -9.766 -8.301 -14.649 -8.301c0 0 -13.672 7.324 -13.672 7.324c-4.882 4.883 -7.324 9.684 -7.324 14.404c0 4.72 2.442 9.359 7.324 13.916c0 0 0 0 0 0" />
  </g>
</svg>