<svg height="1000" width="1000" xmlns="http://www.w3.org/2000/svg"><path d="M283.04 426.112q-12.688 -28.304 0 -58.072t40.992 -39.528q28.792 -12.2 59.048 .244t42.456 40.748q5.856 11.712 5.856 27.328t-5.856 29.28q-11.712 26.84 -41.968 39.04 -30.256 11.712 -59.536 0t-40.992 -39.04zm37.088 -29.28q0 13.664 9.76 23.424t24.4 9.76 24.4 -9.76 9.76 -23.424 -9.76 -23.424 -24.4 -9.76 -24.4 9.76 -9.76 23.424zm165.92 169.824v-128.832q0 -51.24 39.772 -81.252t91.012 -30.012q68.808 0 105.408 33.184l-33.184 52.704q-27.328 -23.424 -70.272 -23.424 -25.864 0 -45.14 15.128t-19.276 47.336v99.552q0 32.208 19.276 47.336t45.14 15.128q38.552 0 72.224 -23.424l31.232 52.704q-43.432 35.136 -103.456 35.136 -52.704 0 -92.72 -30.256t-40.016 -81.008z"/></svg>