<svg height="1000" width="1000" xmlns="http://www.w3.org/2000/svg"><path d="M0 513.952q0 -89.792 64.416 -154.208t154.208 -64.416q17.568 0 31.232 1.952 1.464 -3.904 3.904 -3.904 -3.904 -18.544 -3.904 -29.28 0 -72.224 50.752 -122.976t122.976 -50.752h13.664q72.224 -89.792 187.392 -89.792t187.392 89.792h13.664q72.224 0 122.976 50.752t50.752 122.976q0 66.368 -46.848 117.12 46.848 58.56 46.848 132.736 0 89.792 -64.416 154.208t-154.208 64.416q-41.48 0 -78.08 -13.664 -81.496 71.736 -193.248 74.176l-9.76 19.52 62.464 62.464 -187.392 124.928 62.464 -124.928 -62.464 -62.464 44.896 -29.28q-72.224 -19.52 -122.976 -64.416 -36.6 13.664 -78.08 13.664 -89.792 0 -154.208 -64.416t-64.416 -154.208z"/></svg>