<svg height="1000px" width="1000px" xmlns="http://www.w3.org/2000/svg">
  <g>
    <path d="M0 718.75c0 -58.594 20.508 -109.049 61.523 -151.367c41.016 -42.318 90.821 -64.779 149.415 -67.383c-15.625 -29.948 -23.438 -61.198 -23.438 -93.75c0 -59.896 21.484 -111.328 64.453 -154.297c42.969 -42.969 94.401 -64.453 154.297 -64.453c59.57 0 110.677 20.833 153.32 62.5c41.993 41.016 63.802 91.797 65.43 152.344c50.456 21.81 92.122 55.013 125 99.609c9.115 -1.302 19.531 -1.953 31.25 -1.953c59.896 0 111.328 21.484 154.297 64.453c42.969 42.969 64.453 94.401 64.453 154.297c0 59.896 -21.484 111.328 -64.453 154.297c-42.969 42.969 -94.401 64.453 -154.297 64.453c-27.669 0 -53.711 -4.557 -78.125 -13.672c-58.594 50.781 -126.302 76.172 -203.125 76.172c-76.823 0 -144.531 -25.391 -203.125 -76.172c-24.414 9.115 -50.456 13.672 -78.125 13.672c-59.896 0 -111.328 -21.484 -154.297 -64.453c-42.969 -42.969 -64.453 -94.401 -64.453 -154.297c0 0 0 0 0 0m0 -312.5c0 -9.115 2.93 -16.602 8.789 -22.461c5.859 -5.859 13.346 -8.789 22.461 -8.789c0 0 62.5 0 62.5 0c9.115 0 16.602 2.93 22.461 8.789c5.859 5.859 8.789 13.346 8.789 22.461c0 9.115 -2.93 16.602 -8.789 22.461c-5.859 5.859 -13.346 8.789 -22.461 8.789c0 0 -62.5 0 -62.5 0c-9.115 0 -16.602 -2.93 -22.461 -8.789c-5.859 -5.859 -8.789 -13.346 -8.789 -22.461c0 0 0 0 0 0m62.5 312.5c0 42.969 15.299 79.753 45.898 110.352c30.599 30.599 67.383 45.898 110.352 45.898c32.552 0 62.5 -9.766 89.844 -29.297c50.781 61.198 114.583 91.797 191.406 91.797c76.823 0 140.625 -30.599 191.406 -91.797c27.344 19.531 57.292 29.297 89.844 29.297c42.969 0 79.753 -15.299 110.352 -45.898c30.599 -30.599 45.898 -67.383 45.898 -110.352c0 -42.969 -15.299 -79.753 -45.898 -110.352c-30.599 -30.599 -67.383 -45.898 -110.352 -45.898c-20.833 0 -40.365 3.906 -58.594 11.719c-24.739 -46.875 -60.547 -82.683 -107.422 -107.422c-18.554 -10.417 -38.086 -17.578 -58.593 -21.485c-18.881 -5.208 -37.761 -7.812 -56.641 -7.812c-76.823 0 -140.625 29.948 -191.406 89.844c-12.696 15.299 -23.112 30.924 -31.25 46.875c-0.651 0 -5.86 -1.302 -15.625 -3.907c-15.3 -5.208 -29.623 -7.812 -42.969 -7.812c-42.969 0 -79.753 15.299 -110.352 45.898c-30.599 30.599 -45.898 67.383 -45.898 110.352c0 0 0 0 0 0m56.641 -554.688c-7.162 -7.812 -10.743 -15.462 -10.743 -22.949c0 -7.487 3.581 -14.811 10.743 -21.972c7.161 -7.162 14.485 -10.743 21.972 -10.743c7.487 0 15.137 3.581 22.95 10.743c0 0 42.968 44.922 42.968 44.922c7.162 7.161 10.742 14.322 10.742 21.484c0 7.161 -3.58 14.323 -10.742 21.484c-7.161 7.162 -14.323 10.742 -21.484 10.742c0 0 -21.484 -10.742 -21.484 -10.742c0 0 -44.922 -42.969 -44.922 -42.969m130.859 242.188c0 25.065 6.51 49.154 19.531 72.266c61.198 -69.011 138.021 -103.516 230.469 -103.516c18.229 0 38.411 1.953 60.547 5.859c-6.511 -37.76 -24.089 -69.01 -52.734 -93.75c-28.646 -24.739 -62.5 -37.109 -101.563 -37.109c-42.969 0 -79.753 15.299 -110.352 45.898c-30.599 30.599 -45.898 67.383 -45.898 110.352c0 0 0 0 0 0m125 -312.5c0 0 0 -62.5 0 -62.5c0 -9.115 2.93 -16.602 8.789 -22.461c5.859 -5.859 13.346 -8.789 22.461 -8.789c9.115 0 16.602 2.93 22.461 8.789c5.859 5.859 8.789 13.346 8.789 22.461c0 0 0 62.5 0 62.5c0 9.115 -2.93 16.602 -8.789 22.461c-5.859 5.859 -13.346 8.789 -22.461 8.789c-9.115 0 -16.602 -2.93 -22.461 -8.789c-5.859 -5.859 -8.789 -13.346 -8.789 -22.461c0 0 0 0 0 0m230.469 113.281c-7.162 -7.161 -10.742 -14.323 -10.742 -21.484c0 -7.162 3.58 -14.323 10.742 -21.484c0 0 42.969 -44.922 42.969 -44.922c7.812 -7.162 15.462 -10.743 22.949 -10.743c7.487 0 14.811 3.581 21.972 10.743c7.162 7.161 10.743 14.485 10.743 21.972c0 7.487 -3.581 15.137 -10.743 22.95c0 0 -44.921 42.968 -44.921 42.968c-7.162 7.162 -14.323 10.742 -21.485 10.742c0 0 -21.484 -10.742 -21.484 -10.742m82.031 199.219c0 -9.115 2.93 -16.602 8.789 -22.461c5.859 -5.859 13.346 -8.789 22.461 -8.789c0 0 62.5 0 62.5 0c9.115 0 16.602 2.93 22.461 8.789c5.859 5.859 8.789 13.346 8.789 22.461c0 9.115 -2.93 16.602 -8.789 22.461c-5.859 5.859 -13.346 8.789 -22.461 8.789c0 0 -62.5 0 -62.5 0c-9.115 0 -16.602 -2.93 -22.461 -8.789c-5.859 -5.859 -8.789 -13.346 -8.789 -22.461c0 0 0 0 0 0" />
  </g>
</svg>