<svg height="1000" width="1000" xmlns="http://www.w3.org/2000/svg"><path d="M0 344.128q0 -89.792 64.416 -154.208t154.208 -64.416q17.568 0 31.232 1.952 43.432 -61 109.312 -93.696 67.344 -33.184 140.544 -33.184t140.544 33.184q65.88 32.696 109.312 93.696 13.664 -1.952 31.232 -1.952 89.792 0 154.208 64.416t64.416 154.208 -64.416 154.208 -154.208 64.416q-41.48 0 -78.08 -13.664 -46.36 40.504 -111.264 60.512l25.376 -78.08q45.384 -26.352 74.176 -60.512 40.992 29.28 89.792 29.28 64.416 0 110.288 -45.872t45.872 -110.288 -45.872 -110.288 -110.288 -45.872q-31.232 0 -58.56 11.712 -32.696 -61.976 -91.744 -99.552 -58.072 -37.088 -130.784 -37.088t-130.784 37.088q-59.048 37.576 -91.744 99.552 -27.328 -11.712 -58.56 -11.712 -64.416 0 -110.288 45.872t-45.872 110.288 45.872 110.288 110.288 45.872q48.8 0 89.792 -29.28 44.408 54.656 117.12 78.08l-48.8 48.8q-47.824 -20.008 -80.032 -48.8 -36.6 13.664 -78.08 13.664 -89.792 0 -154.208 -64.416t-64.416 -154.208zm374.784 593.408l62.464 -187.392 -62.464 -62.464 187.392 -187.392 -62.464 187.392 62.464 62.464z"/></svg>