<svg height="1000" width="1000" xmlns="http://www.w3.org/2000/svg"><path d="M0 718.912q0 -87.84 61.488 -151.28t149.328 -67.344q-23.424 -44.896 -23.424 -93.696 0 -89.792 64.416 -154.208t154.208 -64.416q89.304 0 153.232 62.464 62.952 61.488 65.392 152.256 75.64 32.696 124.928 99.552 13.664 -1.952 31.232 -1.952 89.792 0 154.208 64.416t64.416 154.208 -64.416 154.208 -154.208 64.416q-41.48 0 -78.08 -13.664 -87.84 76.128 -203.008 76.128t-203.008 -76.128q-36.6 13.664 -78.08 13.664 -89.792 0 -154.208 -64.416t-64.416 -154.208zm0 -312.32q0 -13.664 8.784 -22.448t22.448 -8.784h62.464q13.664 0 22.448 8.784t8.784 22.448 -8.784 22.448 -22.448 8.784h-62.464q-13.664 0 -22.448 -8.784t-8.784 -22.448zm119.072 -242.048q-21.472 -23.424 0 -44.896t44.896 0l42.944 44.896q21.472 21.472 0 42.944t-42.944 0zm130.784 242.048q0 37.576 19.52 72.224 91.744 -103.456 230.336 -103.456 27.328 0 60.512 5.856 -9.76 -56.608 -52.704 -93.696t-101.504 -37.088q-64.416 0 -110.288 45.872t-45.872 110.288zm124.928 -312.32v-62.464q0 -13.664 8.784 -22.448t22.448 -8.784 22.448 8.784 8.784 22.448v62.464q0 13.664 -8.784 22.448t-22.448 8.784 -22.448 -8.784 -8.784 -22.448zm230.336 113.216q-21.472 -21.472 0 -42.944l42.944 -44.896q23.424 -21.472 44.896 0t0 44.896l-44.896 42.944q-21.472 21.472 -42.944 0zm81.984 199.104q0 -13.664 8.784 -22.448t22.448 -8.784h62.464q13.664 0 22.448 8.784t8.784 22.448 -8.784 22.448 -22.448 8.784h-62.464q-13.664 0 -22.448 -8.784t-8.784 -22.448z"/></svg>