<svg height="1000px" width="1000px" xmlns="http://www.w3.org/2000/svg">
  <g>
    <path d="M0 718.75c0 -59.896 21.484 -111.328 64.453 -154.297c42.969 -42.969 94.401 -64.453 154.297 -64.453c11.719 0 22.135 0.651 31.25 1.953c0.977 -2.604 2.279 -3.906 3.906 -3.906c-2.604 -12.37 -3.906 -22.136 -3.906 -29.297c0 -48.177 16.927 -89.193 50.781 -123.047c33.854 -33.854 74.87 -50.781 123.047 -50.781c0 0 13.672 0 13.672 0c48.177 -59.896 110.677 -89.844 187.5 -89.844c76.823 0 139.323 29.948 187.5 89.844c0 0 13.672 0 13.672 0c48.177 0 89.193 16.927 123.047 50.781c33.854 33.854 50.781 74.87 50.781 123.047c0 44.271 -15.625 83.333 -46.875 117.188c31.25 40.364 46.875 84.635 46.875 132.812c0 59.896 -21.484 111.328 -64.453 154.297c-42.969 42.969 -94.401 64.453 -154.297 64.453c-27.669 0 -53.711 -4.557 -78.125 -13.672c-58.594 50.781 -126.302 76.172 -203.125 76.172c-76.823 0 -144.531 -25.391 -203.125 -76.172c-24.414 9.115 -50.456 13.672 -78.125 13.672c-59.896 0 -111.328 -21.484 -154.297 -64.453c-42.969 -42.969 -64.453 -94.401 -64.453 -154.297c0 0 0 0 0 0m62.5 0c0 42.969 15.299 79.753 45.898 110.352c30.599 30.599 67.383 45.898 110.352 45.898c32.552 0 62.5 -9.766 89.844 -29.297c50.781 61.198 114.583 91.797 191.406 91.797c76.823 0 140.625 -30.599 191.406 -91.797c27.344 19.531 57.292 29.297 89.844 29.297c42.969 0 79.753 -15.299 110.352 -45.898c30.599 -30.599 45.898 -67.383 45.898 -110.352c0 -34.831 -11.068 -66.732 -33.203 -95.703c-15.3 -19.206 -33.936 -34.098 -55.908 -44.678c-21.973 -10.579 -44.353 -15.869 -67.139 -15.869c0 0 -25.391 1.953 -25.391 1.953c-12.044 2.279 -23.112 5.534 -33.203 9.766c-21.81 -41.341 -52.409 -74.545 -91.797 -99.61c-38.737 -24.739 -82.356 -37.109 -130.859 -37.109c-69.01 0 -128.255 25.391 -177.734 76.172c-15.951 17.252 -29.623 35.482 -41.016 54.687c0 3.907 -1.302 5.86 -3.906 5.86c-18.229 -7.813 -37.761 -11.719 -58.594 -11.719c-42.969 0 -79.753 15.299 -110.352 45.898c-30.599 30.599 -45.898 67.383 -45.898 110.352c0 0 0 0 0 0m255.859 -285.156c54.688 -39.063 115.235 -58.594 181.641 -58.594c48.828 0 95.703 11.068 140.625 33.203c43.945 21.81 80.404 53.06 109.375 93.75c9.115 -1.302 19.531 -1.953 31.25 -1.953c47.201 0 90.169 14.323 128.906 42.969c18.229 -22.136 27.344 -46.875 27.344 -74.219c0 -31.25 -10.742 -57.617 -32.227 -79.102c-21.484 -21.484 -47.851 -32.226 -79.101 -32.226c-14.974 0 -29.297 2.604 -42.969 7.812c-14.323 -28.645 -35.807 -52.083 -64.453 -70.312c-28.971 -18.229 -60.221 -27.344 -93.75 -27.344c-33.529 0 -64.779 9.115 -93.75 27.344c-28.646 18.229 -50.13 41.667 -64.453 70.312c-13.672 -5.208 -27.995 -7.812 -42.969 -7.812c-24.414 0 -46.224 7.161 -65.43 21.484c-18.554 13.998 -31.901 32.227 -40.039 54.688c0 0 0 0 0 0" />
  </g>
</svg>