<svg height="1000px" width="1000px" xmlns="http://www.w3.org/2000/svg">
  <g>
    <path d="M1.953125 616.2109375c0 -60.547 21.484 -112.305 64.453 -155.273c42.969 -42.969 94.401 -64.454 154.297 -64.454c9.766 0 20.182 1.303 31.25 3.907c0 -0.651 0.326 -1.628 0.977 -2.93c0.651 -1.302 0.976 -2.279 0.976 -2.93c-1.302 -10.416 -1.953 -20.182 -1.953 -29.297c0 -46.549 16.927 -87.239 50.781 -122.07c33.529 -34.505 74.545 -51.758 123.047 -51.758c5.534 0 10.091 0.651 13.672 1.953c48.177 -59.895 110.677 -89.843 187.5 -89.843c76.823 0 139.323 29.948 187.5 89.843c3.581 -1.302 8.138 -1.953 13.672 -1.953c48.502 0 89.518 17.253 123.047 51.758c33.854 34.831 50.781 75.521 50.781 122.07c0 45.573 -15.625 84.636 -46.875 117.188c31.25 40.365 46.875 84.635 46.875 132.812c0 61.198 -21.484 112.956 -64.453 155.274c-42.643 42.318 -94.076 63.476 -154.297 63.476c-27.669 0 -53.711 -4.557 -78.125 -13.671c-58.594 50.781 -126.302 76.171 -203.125 76.171c-76.823 0 -144.531 -25.39 -203.125 -76.171c-24.414 9.114 -50.456 13.671 -78.125 13.671c-60.221 0 -111.654 -21.158 -154.297 -63.476c-42.969 -42.318 -64.453 -93.75 -64.453 -154.297c0 0 0 0 0 0" />
  </g>
</svg>