<svg height="1000px" width="1000px" xmlns="http://www.w3.org/2000/svg">
  <g>
    <path d="M0 343.75c0 -59.896 21.484 -111.328 64.453 -154.297c42.969 -42.969 94.401 -64.453 154.297 -64.453c11.719 0 22.135 0.651 31.25 1.953c28.971 -40.69 65.43 -71.94 109.375 -93.75c44.922 -22.135 91.797 -33.203 140.625 -33.203c48.828 0 95.703 11.068 140.625 33.203c43.945 21.81 80.404 53.06 109.375 93.75c9.115 -1.302 19.531 -1.953 31.25 -1.953c59.896 0 111.328 21.484 154.297 64.453c42.969 42.969 64.453 94.401 64.453 154.297c0 59.896 -21.484 111.328 -64.453 154.297c-42.969 42.969 -94.401 64.453 -154.297 64.453c-27.669 0 -53.711 -4.557 -78.125 -13.672c-50.456 43.945 -111.003 68.685 -181.641 74.219c0 0 -21.484 64.453 -21.484 64.453c0 0 62.5 62.5 62.5 62.5c0 0 -187.5 187.5 -187.5 187.5c0 0 62.5 -187.5 62.5 -187.5c0 0 -62.5 -62.5 -62.5 -62.5c0 0 68.359 -68.359 68.359 -68.359c-55.989 -10.417 -104.817 -33.855 -146.484 -70.313c-24.414 9.115 -50.456 13.672 -78.125 13.672c-59.896 0 -111.328 -21.484 -154.297 -64.453c-42.969 -42.969 -64.453 -94.401 -64.453 -154.297c0 0 0 0 0 0m62.5 0c0 42.969 15.299 79.753 45.898 110.352c30.599 30.599 67.383 45.898 110.352 45.898c32.552 0 62.5 -9.766 89.844 -29.297c50.781 61.198 114.583 91.797 191.406 91.797c0 0 42.969 -5.859 42.969 -5.859c59.57 -10.092 109.049 -38.737 148.437 -85.938c27.344 19.531 57.292 29.297 89.844 29.297c42.969 0 79.753 -15.299 110.352 -45.898c30.599 -30.599 45.898 -67.383 45.898 -110.352c0 -42.969 -15.299 -79.753 -45.898 -110.352c-30.599 -30.599 -67.383 -45.898 -110.352 -45.898c-20.833 0 -40.365 3.906 -58.594 11.719c-21.81 -41.341 -52.409 -74.545 -91.797 -99.61c-38.737 -24.739 -82.356 -37.109 -130.859 -37.109c-48.503 0 -92.122 12.37 -130.859 37.109c-39.388 25.065 -69.987 58.269 -91.797 99.61c-18.229 -7.813 -37.761 -11.719 -58.594 -11.719c-42.969 0 -79.753 15.299 -110.352 45.898c-30.599 30.599 -45.898 67.383 -45.898 110.352c0 0 0 0 0 0" />
  </g>
</svg>