<svg height="1000" width="1000" xmlns="http://www.w3.org/2000/svg"><path d="M1.952 616.432q0 -90.768 64.416 -155.184t154.208 -64.416q14.64 0 31.232 3.904 0 -.976 .976 -2.928t.976 -2.928q-1.952 -15.616 -1.952 -29.28 0 -69.784 50.752 -122 50.264 -51.728 122.976 -51.728 8.296 0 13.664 1.952 72.224 -89.792 187.392 -89.792t187.392 89.792q5.368 -1.952 13.664 -1.952 72.712 0 122.976 51.728 50.752 52.216 50.752 122 0 68.32 -46.848 117.12 46.848 60.512 46.848 132.736 0 91.744 -64.416 155.184 -63.928 63.44 -154.208 63.44 -41.48 0 -78.08 -13.664 -87.84 76.128 -203.008 76.128t-203.008 -76.128q-36.6 13.664 -78.08 13.664 -90.28 0 -154.208 -63.44 -64.416 -63.44 -64.416 -154.208z"/></svg>