<svg height="1000" width="1000" xmlns="http://www.w3.org/2000/svg"><path d="M1.952 718.912q0 -89.792 64.416 -154.208t154.208 -64.416q17.568 0 31.232 1.952 78.08 -107.36 210.816 -124.928 -9.272 -31.232 -9.272 -63.928 0 -30.744 8.296 -62.952 16.592 -66.368 63.44 -113.216 39.04 -39.04 93.696 -58.56 6.832 -2.928 12.688 -2.928 11.224 0 20.496 9.76 9.76 10.248 9.76 21.96 0 4.88 -1.952 10.248 -12.2 32.696 -12.2 65.392 0 19.52 4.392 39.04 11.712 51.728 49.776 90.768 38.552 39.04 90.768 50.752 20.008 4.392 39.528 4.392 33.184 0 65.88 -12.2 5.368 -1.952 10.248 -1.952 11.712 0 21.96 9.76 9.76 9.272 9.76 20.496 0 5.856 -2.928 12.688 -19.52 54.656 -58.56 93.696 -7.808 7.808 -27.328 21.472 66.368 20.984 108.336 78.08 41.968 56.608 41.968 128.832 0 89.792 -64.416 154.208t-154.208 64.416q-41.48 0 -78.08 -13.664 -87.84 76.128 -203.008 76.128t-203.008 -76.128q-36.6 13.664 -78.08 13.664 -89.792 0 -154.208 -64.416t-64.416 -154.208zm62.464 0q0 64.416 45.872 110.288t110.288 45.872q48.8 0 89.792 -29.28 76.128 91.744 191.296 91.744t191.296 -91.744q40.992 29.28 89.792 29.28 64.416 0 110.288 -45.872t45.872 -110.288 -45.872 -110.288 -110.288 -45.872q-31.232 0 -58.56 11.712 -1.952 -1.952 -4.88 -6.832t-2.928 -6.832q-25.864 -39.528 -58.56 -68.32 -38.064 -28.792 -83.936 -42.944 -35.136 -11.712 -72.224 -11.712 -13.664 0 -13.664 1.952 -68.808 2.44 -122.976 39.04 -54.168 37.088 -85.888 95.648 -27.328 -11.712 -58.56 -11.712 -64.416 0 -110.288 45.872t-45.872 110.288zm454.816 -445.056q-4.392 20.496 -4.392 40.504 0 32.696 12.2 62.952 134.2 9.272 218.624 117.12 64.904 -15.616 103.456 -64.416 -7.808 .488 -15.128 .488 -101.504 0 -176.168 -73.688 -72.712 -72.712 -72.712 -170.8 0 -9.76 .488 -19.52 -7.32 5.368 -15.616 13.664 -39.04 39.04 -50.752 93.696z"/></svg>