<svg height="1000px" width="1000px" xmlns="http://www.w3.org/2000/svg">
  <g>
    <path d="M0 531.25c0 -59.896 21.484 -111.328 64.453 -154.297c42.969 -42.969 94.401 -64.453 154.297 -64.453c11.719 0 22.135 0.651 31.25 1.953c28.971 -40.69 65.43 -71.94 109.375 -93.75c44.922 -22.135 91.797 -33.203 140.625 -33.203c48.828 0 95.703 11.068 140.625 33.203c43.945 21.81 80.404 53.06 109.375 93.75c9.115 -1.302 19.531 -1.953 31.25 -1.953c59.896 0 111.328 21.484 154.297 64.453c42.969 42.969 64.453 94.401 64.453 154.297c0 59.896 -21.484 111.328 -64.453 154.297c-42.969 42.969 -94.401 64.453 -154.297 64.453c-27.669 0 -53.711 -4.557 -78.125 -13.672c-58.594 50.781 -126.302 76.172 -203.125 76.172c-76.823 0 -144.531 -25.391 -203.125 -76.172c-24.414 9.115 -50.456 13.672 -78.125 13.672c-59.896 0 -111.328 -21.484 -154.297 -64.453c-42.969 -42.969 -64.453 -94.401 -64.453 -154.297c0 0 0 0 0 0" />
  </g>
</svg>