<svg height="1000px" width="1000px" xmlns="http://www.w3.org/2000/svg">
  <g>
    <path d="M0 718.75c0 -59.896 21.484 -111.328 64.453 -154.297c42.969 -42.969 94.401 -64.453 154.297 -64.453c11.719 0 22.135 0.651 31.25 1.953c52.083 -71.614 122.396 -113.281 210.938 -125c-11.719 -40.69 -12.045 -83.008 -0.977 -126.953c11.068 -44.271 32.226 -82.031 63.476 -113.281c26.042 -26.042 57.292 -45.573 93.75 -58.594c12.696 -5.208 23.764 -2.93 33.204 6.836c9.114 9.766 11.718 20.508 7.812 32.227c-13.021 34.83 -15.625 69.661 -7.812 104.492c7.812 34.505 24.414 64.778 49.804 90.82c25.716 26.042 55.99 42.969 90.821 50.781c35.481 7.813 70.638 5.209 105.468 -7.812c11.719 -3.906 22.461 -1.302 32.227 7.812c9.766 9.44 12.044 20.508 6.836 33.203c-13.021 36.459 -32.552 67.709 -58.594 93.75c-5.208 5.209 -14.323 12.37 -27.344 21.485c44.271 13.997 80.404 40.039 108.399 78.125c27.995 37.76 41.992 80.729 41.992 128.906c0 59.896 -21.484 111.328 -64.453 154.297c-42.969 42.969 -94.401 64.453 -154.297 64.453c-27.669 0 -53.711 -4.557 -78.125 -13.672c-58.594 50.781 -126.302 76.172 -203.125 76.172c-76.823 0 -144.531 -25.391 -203.125 -76.172c-24.414 9.115 -50.456 13.672 -78.125 13.672c-59.896 0 -111.328 -21.484 -154.297 -64.453c-42.969 -42.969 -64.453 -94.401 -64.453 -154.297c0 0 0 0 0 0m517.578 -445.313c-7.812 36.784 -5.208 71.29 7.813 103.516c89.518 6.185 162.435 45.248 218.75 117.188c43.294 -10.417 77.799 -31.901 103.515 -64.454c-74.218 3.907 -138.021 -20.507 -191.406 -73.242c-53.385 -53.06 -77.474 -116.536 -72.266 -190.429c-4.882 3.58 -10.091 8.138 -15.625 13.672c-26.041 26.041 -42.968 57.291 -50.781 93.75c0 0 0 0 0 0" />
  </g>
</svg>