<svg height="1000" width="1000" xmlns="http://www.w3.org/2000/svg"><path d="M0 718.912q0 -89.792 64.416 -154.208t154.208 -64.416q17.568 0 31.232 1.952 1.464 -3.904 3.904 -3.904 -3.904 -18.544 -3.904 -29.28 0 -72.224 50.752 -122.976t122.976 -50.752h13.664q72.224 -89.792 187.392 -89.792t187.392 89.792h13.664q72.224 0 122.976 50.752t50.752 122.976q0 66.368 -46.848 117.12 46.848 60.512 46.848 132.736 0 89.792 -64.416 154.208t-154.208 64.416q-41.48 0 -78.08 -13.664 -87.84 76.128 -203.008 76.128t-203.008 -76.128q-36.6 13.664 -78.08 13.664 -89.792 0 -154.208 -64.416t-64.416 -154.208zm62.464 0q0 64.416 45.872 110.288t110.288 45.872q48.8 0 89.792 -29.28 76.128 91.744 191.296 91.744t191.296 -91.744q40.992 29.28 89.792 29.28 64.416 0 110.288 -45.872t45.872 -110.288q0 -52.216 -33.184 -95.648 -22.936 -28.792 -55.876 -44.652t-67.1 -15.86l-25.376 1.952q-18.056 3.416 -33.184 9.76 -32.696 -61.976 -91.744 -99.552 -58.072 -37.088 -130.784 -37.088 -103.456 0 -177.632 76.128 -23.912 25.864 -40.992 54.656 0 5.856 -3.904 5.856 -27.328 -11.712 -58.56 -11.712 -64.416 0 -110.288 45.872t-45.872 110.288zm255.712 -284.992q81.984 -58.56 181.536 -58.56 73.2 0 140.544 33.184 65.88 32.696 109.312 93.696 13.664 -1.952 31.232 -1.952 70.76 0 128.832 42.944 27.328 -33.184 27.328 -74.176 0 -46.848 -32.208 -79.056t-79.056 -32.208q-22.448 0 -42.944 7.808 -21.472 -42.944 -64.416 -70.272 -43.432 -27.328 -93.696 -27.328t-93.696 27.328q-42.944 27.328 -64.416 70.272 -20.496 -7.808 -42.944 -7.808 -36.6 0 -65.392 21.472 -27.816 20.984 -40.016 54.656z"/></svg>