<svg height="1000" width="1000" xmlns="http://www.w3.org/2000/svg"><path d="M0 344.128q0 -89.792 64.416 -154.208t154.208 -64.416q17.568 0 31.232 1.952 43.432 -61 109.312 -93.696 67.344 -33.184 140.544 -33.184t140.544 33.184q65.88 32.696 109.312 93.696 13.664 -1.952 31.232 -1.952 89.792 0 154.208 64.416t64.416 154.208 -64.416 154.208 -154.208 64.416q-41.48 0 -78.08 -13.664 -75.64 65.88 -181.536 74.176l-21.472 64.416 62.464 62.464 -187.392 187.392 62.464 -187.392 -62.464 -62.464 68.32 -68.32q-83.936 -15.616 -146.4 -70.272 -36.6 13.664 -78.08 13.664 -89.792 0 -154.208 -64.416t-64.416 -154.208z"/></svg>