<svg height="1000" width="1000" xmlns="http://www.w3.org/2000/svg"><path d="M0 718.912q0 -89.792 64.416 -154.208t154.208 -64.416q17.568 0 31.232 1.952 78.08 -107.36 210.816 -124.928 -17.568 -61 -.976 -126.88 16.592 -66.368 63.44 -113.216 39.04 -39.04 93.696 -58.56 19.032 -7.808 33.184 6.832 13.664 14.64 7.808 32.208 -19.52 52.216 -7.808 104.432 11.712 51.728 49.776 90.768 38.552 39.04 90.768 50.752 53.192 11.712 105.408 -7.808 17.568 -5.856 32.208 7.808 14.64 14.152 6.832 33.184 -19.52 54.656 -58.56 93.696 -7.808 7.808 -27.328 21.472 66.368 20.984 108.336 78.08 41.968 56.608 41.968 128.832 0 89.792 -64.416 154.208t-154.208 64.416q-41.48 0 -78.08 -13.664 -87.84 76.128 -203.008 76.128t-203.008 -76.128q-36.6 13.664 -78.08 13.664 -89.792 0 -154.208 -64.416t-64.416 -154.208zm517.28 -445.056q-11.712 55.144 7.808 103.456 134.2 9.272 218.624 117.12 64.904 -15.616 103.456 -64.416 -111.264 5.856 -191.296 -73.2 -80.032 -79.544 -72.224 -190.32 -7.32 5.368 -15.616 13.664 -39.04 39.04 -50.752 93.696z"/></svg>