<svg height="1000px" width="1000px" xmlns="http://www.w3.org/2000/svg">
  <g>
    <path d="M0 500c0 -138.021 48.828 -255.859 146.484 -353.516c97.657 -97.656 215.495 -146.484 353.516 -146.484c138.021 0 255.859 48.828 353.516 146.484c97.656 97.657 146.484 215.495 146.484 353.516c0 138.021 -48.828 255.859 -146.484 353.516c-97.657 97.656 -215.495 146.484 -353.516 146.484c-138.021 0 -255.859 -48.828 -353.516 -146.484c-97.656 -97.657 -146.484 -215.495 -146.484 -353.516c0 0 0 0 0 0m125 0c0 102.865 36.784 191.081 110.352 264.648c73.567 73.568 161.783 110.352 264.648 110.352c102.865 0 190.755 -36.458 263.672 -109.375c74.219 -74.219 111.328 -162.76 111.328 -265.625c0 -102.865 -36.784 -191.081 -110.352 -264.648c-73.567 -73.568 -161.783 -110.352 -264.648 -110.352c-102.865 0 -191.081 36.784 -264.648 110.352c-73.568 73.567 -110.352 161.783 -110.352 264.648c0 0 0 0 0 0m187.5 187.5c0 0 125 -250 125 -250c0 0 250 -125 250 -125c0 0 -125 250 -125 250c0 0 -250 125 -250 125" />
  </g>
</svg>