<svg height="1000" width="1000" xmlns="http://www.w3.org/2000/svg"><path d="M122.976 529.568q0 -13.664 8.784 -22.448t22.448 -8.784h62.464q13.664 0 22.448 8.784t8.784 22.448 -8.784 22.448 -22.448 8.784h-62.464q-13.664 0 -22.448 -8.784t-8.784 -22.448zm119.072 286.944q-10.736 -10.736 -10.736 -21.96t10.736 -22.936l44.896 -42.944q10.736 -12.2 21.96 -12.2l20.984 11.224q10.736 11.224 10.736 22.204t-10.736 21.716l-42.944 44.896q-11.712 10.736 -22.936 10.736t-21.96 -10.736zm0 -528.992q-10.736 -11.712 -10.736 -22.936t10.736 -21.96 21.96 -10.736 22.936 10.736l42.944 44.896q10.736 10.736 10.736 21.472t-10.736 21.472 -21.472 10.736l-21.472 -10.736zm68.32 242.048q0 -89.792 64.416 -154.208t154.208 -64.416q28.792 0 62.464 9.76 33.672 -9.76 62.464 -9.76 89.792 0 154.208 64.416t64.416 154.208 -64.416 154.208 -154.208 64.416q-28.792 0 -62.464 -9.76 -33.672 9.76 -62.464 9.76 -89.792 0 -154.208 -64.416t-64.416 -154.208zm62.464 0q0 56.12 36.112 99.552 35.624 42.944 88.816 52.704 -62.464 -62.464 -62.464 -152.256t62.464 -152.256q-53.192 9.76 -88.816 52.704 -36.112 43.432 -36.112 99.552zm124.928 374.784v-62.464q0 -13.664 8.784 -22.448t22.448 -8.784 22.448 8.784 8.784 22.448v62.464q0 13.664 -8.784 22.448t-22.448 8.784 -22.448 -8.784 -8.784 -22.448zm0 -687.104v-62.464q0 -13.664 8.784 -22.448t22.448 -8.784 22.448 8.784 8.784 22.448v62.464q0 13.664 -8.784 22.448t-22.448 8.784 -22.448 -8.784 -8.784 -22.448z"/></svg>