<svg height="1000px" width="1000px" xmlns="http://www.w3.org/2000/svg">
  <g>
    <path d="M276.123046875 388.427734375c1.465 -12.858 6.51 -24.74 15.137 -35.645c8.626 -10.904 19.287 -18.473 31.982 -22.705c20.182 -7.812 40.039 -7.812 59.57 0c19.532 7.813 33.204 20.834 41.016 39.063c8.138 18.555 8.138 37.435 0 56.641c-8.138 19.205 -21.81 32.877 -41.016 41.015c-9.114 3.906 -19.205 5.86 -30.273 5.86c-11.068 0 -21.159 -1.954 -30.273 -5.86c-18.881 -8.138 -32.553 -21.484 -41.016 -40.039c-4.883 -12.695 -6.592 -25.472 -5.127 -38.33c0 0 0 0 0 0m42.236 10.01c0 9.114 3.256 16.927 9.766 23.437c6.51 6.511 14.648 9.766 24.414 9.766c9.766 0 17.904 -3.255 24.414 -9.766c6.51 -6.51 9.766 -14.323 9.766 -23.437c0 -9.115 -3.256 -16.927 -9.766 -23.438c-6.51 -6.51 -14.648 -9.765 -24.414 -9.765c-9.766 0 -17.904 3.255 -24.414 9.765c-6.51 6.511 -9.766 14.323 -9.766 23.438c0 0 0 0 0 0m167.969 277.344c0 0 0 -345.704 0 -345.704c0 0 238.281 0 238.281 0c0 0 0 62.5 0 62.5c0 0 -169.922 0 -169.922 0c0 0 0 80.079 0 80.079c0 0 144.532 0 144.532 0c0 0 0 62.5 0 62.5c0 0 -144.532 0 -144.532 0c0 0 0 140.625 0 140.625c0 0 -68.359 0 -68.359 0c0 0 0 0 0 0" />
  </g>
</svg>