<svg height="1000" width="1000" xmlns="http://www.w3.org/2000/svg"><path d="M275.964 388.78q2.196 -19.276 15.128 -35.624t31.964 -22.692q30.256 -11.712 59.536 0t40.992 39.04q12.2 27.816 0 56.608t-40.992 40.992q-13.664 5.856 -30.256 5.856t-30.256 -5.856q-28.304 -12.2 -40.992 -40.016 -7.32 -19.032 -5.124 -38.308zm42.212 10.004q0 13.664 9.76 23.424t24.4 9.76 24.4 -9.76 9.76 -23.424 -9.76 -23.424 -24.4 -9.76 -24.4 9.76 -9.76 23.424zm167.872 277.184v-345.504h238.144v62.464h-169.824v80.032h144.448v62.464h-144.448v140.544h-68.32z"/></svg>