<svg height="1000" width="1000" xmlns="http://www.w3.org/2000/svg"><path d="M93.696 841.888q0 -13.664 8.784 -22.448t22.448 -8.784h749.568q13.664 0 22.448 8.784t8.784 22.448 -8.784 22.448 -22.448 8.784h-749.568q-13.664 0 -22.448 -8.784t-8.784 -22.448zm0 -124.928q0 -13.664 8.784 -22.448t22.448 -8.784h749.568q13.664 0 22.448 8.784t8.784 22.448 -8.784 22.448 -22.448 8.784h-749.568q-13.664 0 -22.448 -8.784t-8.784 -22.448zm0 -124.928q0 -13.664 8.784 -22.448t22.448 -8.784h749.568q13.664 0 22.448 8.784t8.784 22.448 -8.784 22.448 -22.448 8.784h-749.568q-13.664 0 -22.448 -8.784t-8.784 -22.448zm0 -124.928q0 -13.664 8.784 -22.448t22.448 -8.784h62.464q13.664 0 22.448 8.784t8.784 22.448 -8.784 22.448 -22.448 8.784h-62.464q-13.664 0 -22.448 -8.784t-8.784 -22.448zm119.072 -242.048q-10.736 -11.712 -10.736 -22.936t10.736 -21.96 21.96 -10.736 22.936 10.736l42.944 44.896q10.736 10.736 10.736 21.472t-10.736 21.472 -21.472 10.736l-21.472 -10.736zm68.32 242.048q0 -89.792 64.416 -154.208t154.208 -64.416 154.208 64.416 64.416 154.208q0 8.784 -3.904 31.232h-62.464q3.904 -16.592 3.904 -31.232 0 -64.416 -45.872 -110.288t-110.288 -45.872 -110.288 45.872 -45.872 110.288q0 14.64 3.904 31.232h-62.464q-3.904 -22.448 -3.904 -31.232zm187.392 -312.32v-62.464q0 -13.664 8.784 -22.448t22.448 -8.784 22.448 8.784 8.784 22.448v62.464q0 13.664 -8.784 22.448t-22.448 8.784 -22.448 -8.784 -8.784 -22.448zm230.336 113.216q-10.736 -10.736 -10.736 -21.472t10.736 -21.472l42.944 -44.896q11.712 -10.736 22.936 -10.736t21.96 10.736 10.736 21.96 -10.736 22.936l-44.896 42.944q-10.736 10.736 -21.472 10.736zm81.984 199.104q0 -13.664 8.784 -22.448t22.448 -8.784h62.464q13.664 0 22.448 8.784t8.784 22.448 -8.784 22.448 -22.448 8.784h-62.464q-13.664 0 -22.448 -8.784t-8.784 -22.448z"/></svg>