<svg height="1000" width="1000" xmlns="http://www.w3.org/2000/svg"><path d="M93.696 841.888q0 -13.664 8.784 -22.448t22.448 -8.784h749.568q13.664 0 22.448 8.784t8.784 22.448 -8.784 22.448 -22.448 8.784h-749.568q-13.664 0 -22.448 -8.784t-8.784 -22.448zm0 -124.928q0 -13.664 8.784 -22.448t22.448 -8.784h749.568q13.664 0 22.448 8.784t8.784 22.448 -8.784 22.448 -22.448 8.784h-749.568q-13.664 0 -22.448 -8.784t-8.784 -22.448zm0 -124.928q0 -13.664 8.784 -22.448t22.448 -8.784h749.568q13.664 0 22.448 8.784t8.784 22.448 -8.784 22.448 -22.448 8.784h-749.568q-13.664 0 -22.448 -8.784t-8.784 -22.448zm188.368 -253.76q8.784 -87.84 71.248 -150.304 39.04 -39.04 93.696 -58.56 5.856 -1.952 11.224 -1.952 12.2 0 21.96 9.76t9.76 20.984q0 4.88 -1.952 10.248 -12.2 32.696 -12.2 65.88 0 20.008 4.392 39.528 11.712 52.216 50.752 90.768 39.04 38.064 90.768 49.776 19.52 4.392 39.04 4.392l65.392 -12.2q5.368 -1.952 10.248 -1.952 11.712 0 21.228 9.76t9.516 21.96q0 5.368 -1.952 11.224 -9.76 27.816 -23.424 50.752h-81.984q15.616 -13.664 17.568 -17.568 -9.76 .488 -19.52 .488 -98.576 0 -170.8 -72.712 -73.688 -74.664 -73.688 -176.168 0 -7.32 .488 -15.128 -7.32 5.368 -15.616 13.664 -54.656 54.656 -54.656 132.736t54.656 132.736l1.952 1.952h-80.032q-39.528 -61 -39.528 -132.736 0 -13.664 1.464 -27.328z"/></svg>