<svg height="1000" width="1000" xmlns="http://www.w3.org/2000/svg"><path d="M0 843.84q0 -13.664 8.784 -22.448t22.448 -8.784h936.96q13.664 0 22.448 8.784t8.784 22.448 -8.784 22.448 -22.448 8.784h-936.96q-13.664 0 -22.448 -8.784t-8.784 -22.448zm0 -124.928q0 -13.664 8.784 -22.448t22.448 -8.784h936.96q13.664 0 22.448 8.784t8.784 22.448 -8.784 22.448 -22.448 8.784h-936.96q-13.664 0 -22.448 -8.784t-8.784 -22.448zm0 -124.928q0 -13.664 8.784 -22.448t22.448 -8.784h936.96q13.664 0 22.448 8.784t8.784 22.448 -8.784 22.448 -22.448 8.784h-936.96q-13.664 0 -22.448 -8.784t-8.784 -22.448zm0 -124.928q0 -89.792 64.416 -154.208t154.208 -64.416q17.568 0 31.232 1.952 43.432 -61 109.312 -93.696 67.344 -33.184 140.544 -33.184t140.544 33.184q65.88 32.696 109.312 93.696 13.664 -1.952 31.232 -1.952 89.792 0 154.208 64.416t64.416 154.208q0 8.784 -3.904 31.232h-62.464q3.904 -16.592 3.904 -31.232 0 -64.416 -45.872 -110.288t-110.288 -45.872q-31.232 0 -58.56 11.712 -32.696 -61.976 -91.744 -99.552 -58.072 -37.088 -130.784 -37.088t-130.784 37.088q-59.048 37.576 -91.744 99.552 -27.328 -11.712 -58.56 -11.712 -64.416 0 -110.288 45.872t-45.872 110.288q0 14.64 3.904 31.232h-62.464q-3.904 -22.448 -3.904 -31.232z"/></svg>