<svg height="1000px" width="1000px" xmlns="http://www.w3.org/2000/svg">
  <g>
    <path d="M187.5 656.25c0 -9.115 2.93 -16.602 8.789 -22.461c5.859 -5.859 13.346 -8.789 22.461 -8.789c0 0 562.5 0 562.5 0c9.115 0 16.602 2.93 22.461 8.789c5.859 5.859 8.789 13.346 8.789 22.461c0 9.115 -2.93 16.602 -8.789 22.461c-5.859 5.859 -13.346 8.789 -22.461 8.789c0 0 -562.5 0 -562.5 0c-9.115 0 -16.602 -2.93 -22.461 -8.789c-5.859 -5.859 -8.789 -13.346 -8.789 -22.461c0 0 0 0 0 0m0 -125c0 -9.115 2.93 -16.602 8.789 -22.461c5.859 -5.859 13.346 -8.789 22.461 -8.789c0 0 562.5 0 562.5 0c9.115 0 16.602 2.93 22.461 8.789c5.859 5.859 8.789 13.346 8.789 22.461c0 9.115 -2.93 16.602 -8.789 22.461c-5.859 5.859 -13.346 8.789 -22.461 8.789c0 0 -562.5 0 -562.5 0c-9.115 0 -16.602 -2.93 -22.461 -8.789c-5.859 -5.859 -8.789 -13.346 -8.789 -22.461c0 0 0 0 0 0m0 -125c0 -9.115 2.93 -16.602 8.789 -22.461c5.859 -5.859 13.346 -8.789 22.461 -8.789c0 0 562.5 0 562.5 0c9.115 0 16.602 2.93 22.461 8.789c5.859 5.859 8.789 13.346 8.789 22.461c0 9.115 -2.93 16.602 -8.789 22.461c-5.859 5.859 -13.346 8.789 -22.461 8.789c0 0 -562.5 0 -562.5 0c-9.115 0 -16.602 -2.93 -22.461 -8.789c-5.859 -5.859 -8.789 -13.346 -8.789 -22.461c0 0 0 0 0 0m0 -125c0 -9.115 2.93 -16.602 8.789 -22.461c5.859 -5.859 13.346 -8.789 22.461 -8.789c0 0 562.5 0 562.5 0c9.115 0 16.602 2.93 22.461 8.789c5.859 5.859 8.789 13.346 8.789 22.461c0 9.115 -2.93 16.602 -8.789 22.461c-5.859 5.859 -13.346 8.789 -22.461 8.789c0 0 -562.5 0 -562.5 0c-9.115 0 -16.602 -2.93 -22.461 -8.789c-5.859 -5.859 -8.789 -13.346 -8.789 -22.461c0 0 0 0 0 0" />
  </g>
</svg>