<svg height="1000" width="1000" xmlns="http://www.w3.org/2000/svg"><path d="M187.392 656.448q0 -13.664 8.784 -22.448t22.448 -8.784h562.176q13.664 0 22.448 8.784t8.784 22.448 -8.784 22.448 -22.448 8.784h-562.176q-13.664 0 -22.448 -8.784t-8.784 -22.448zm0 -124.928q0 -13.664 8.784 -22.448t22.448 -8.784h562.176q13.664 0 22.448 8.784t8.784 22.448 -8.784 22.448 -22.448 8.784h-562.176q-13.664 0 -22.448 -8.784t-8.784 -22.448zm0 -124.928q0 -13.664 8.784 -22.448t22.448 -8.784h562.176q13.664 0 22.448 8.784t8.784 22.448 -8.784 22.448 -22.448 8.784h-562.176q-13.664 0 -22.448 -8.784t-8.784 -22.448zm0 -124.928q0 -13.664 8.784 -22.448t22.448 -8.784h562.176q13.664 0 22.448 8.784t8.784 22.448 -8.784 22.448 -22.448 8.784h-562.176q-13.664 0 -22.448 -8.784t-8.784 -22.448z"/></svg>