<svg height="1000" width="1000" xmlns="http://www.w3.org/2000/svg"><path d="M0 344.128q0 -89.792 64.416 -154.208t154.208 -64.416q17.568 0 31.232 1.952 43.432 -61 109.312 -93.696 67.344 -33.184 140.544 -33.184t140.544 33.184q65.88 32.696 109.312 93.696 13.664 -1.952 31.232 -1.952 89.792 0 154.208 64.416t64.416 154.208 -64.416 154.208 -154.208 64.416q-41.48 0 -78.08 -13.664 -87.84 76.128 -203.008 76.128t-203.008 -76.128q-36.6 13.664 -78.08 13.664 -89.792 0 -154.208 -64.416t-64.416 -154.208zm124.928 343.552q0 -25.376 18.544 -43.92t43.92 -18.544 42.944 19.52q19.52 17.568 19.52 42.944t-18.544 43.92 -43.92 18.544 -43.92 -18.544 -18.544 -43.92zm124.928 249.856q0 -25.376 18.544 -43.92t43.92 -18.544 42.944 19.52q19.52 17.568 19.52 42.944t-18.544 43.92 -43.92 18.544 -43.92 -18.544 -18.544 -43.92zm187.392 -187.392q0 -25.376 18.544 -43.92t43.92 -18.544 42.944 19.52q19.52 17.568 19.52 42.944t-18.544 43.92 -43.92 18.544 -43.92 -18.544 -18.544 -43.92zm187.392 187.392q0 -25.376 18.544 -43.92t43.92 -18.544 42.944 19.52q19.52 17.568 19.52 42.944t-18.544 43.92 -43.92 18.544 -43.92 -18.544 -18.544 -43.92zm124.928 -249.856q0 -25.376 18.544 -43.92t43.92 -18.544 42.944 19.52q19.52 17.568 19.52 42.944t-18.544 43.92 -43.92 18.544 -43.92 -18.544 -18.544 -43.92z"/></svg>