<svg height="1000" width="1000" xmlns="http://www.w3.org/2000/svg"><path d="M60.512 592.032q0 -13.664 10.736 -22.448t26.352 -8.784h167.872q-10.248 -31.232 -13.664 -62.464h-97.6q-13.664 0 -22.448 -8.784t-8.784 -22.448 8.784 -22.448 22.448 -8.784h97.6q3.416 -31.232 13.664 -62.464h-173.728q-13.664 0 -22.448 -8.784t-8.784 -22.448 8.784 -22.448 22.448 -8.784h203.008q38.552 -56.12 100.528 -90.768 61 -34.16 133.712 -34.16 107.848 0 186.416 72.224 79.056 72.712 90.768 177.632h160.064q13.664 0 22.448 8.784t8.784 22.448 -8.784 22.448 -22.448 8.784h-160.064q-3.416 31.232 -13.664 62.464h42.944q15.616 0 26.352 8.784t10.736 22.448 -10.736 22.448 -26.352 8.784h-72.224q-38.552 56.12 -100.528 90.768 -61 34.16 -133.712 34.16t-133.712 -34.16q-61.976 -34.648 -100.528 -90.768h-197.152q-15.616 0 -26.352 -8.784t-10.736 -22.448zm253.76 -93.696q3.904 33.184 17.568 62.464h394.304q13.664 -29.28 17.568 -62.464h-429.44zm0 -62.464h429.44q-11.712 -80.52 -72.224 -133.712 -61 -53.68 -142.496 -53.68 -87.352 0 -152.256 62.464h152.256q13.664 0 22.448 8.784t8.784 22.448 -8.784 22.448 -22.448 8.784h-197.152q-13.664 29.28 -17.568 62.464zm62.464 187.392q64.904 62.464 152.256 62.464t152.256 -62.464h-304.512z"/></svg>