<svg height="1000px" width="1000px" xmlns="http://www.w3.org/2000/svg">
  <g>
    <path d="M60.546875 591.796875c0 -9.115 3.581 -16.602 10.742 -22.461c7.162 -5.859 15.951 -8.789 26.367 -8.789c0 0 167.969 0 167.969 0c-6.836 -20.833 -11.393 -41.667 -13.672 -62.5c0 0 -97.656 0 -97.656 0c-9.115 0 -16.602 -2.93 -22.461 -8.789c-5.859 -5.859 -8.789 -13.346 -8.789 -22.461c0 -9.115 2.93 -16.602 8.789 -22.461c5.859 -5.859 13.346 -8.789 22.461 -8.789c0 0 97.656 0 97.656 0c2.279 -20.833 6.836 -41.667 13.672 -62.5c0 0 -173.828 0 -173.828 0c-9.115 0 -16.602 -2.93 -22.461 -8.789c-5.859 -5.859 -8.789 -13.346 -8.789 -22.461c0 -9.115 2.93 -16.602 8.789 -22.461c5.859 -5.859 13.346 -8.789 22.461 -8.789c0 0 203.125 0 203.125 0c25.716 -37.435 59.245 -67.708 100.586 -90.82c40.69 -22.787 85.286 -34.18 133.789 -34.18c71.94 0 134.115 24.089 186.523 72.266c52.735 48.502 83.008 107.747 90.821 177.734c0 0 160.156 0 160.156 0c9.115 0 16.602 2.93 22.461 8.789c5.859 5.859 8.789 13.346 8.789 22.461c0 9.115 -2.93 16.602 -8.789 22.461c-5.859 5.859 -13.346 8.789 -22.461 8.789c0 0 -160.156 0 -160.156 0c-2.279 20.833 -6.836 41.667 -13.672 62.5c0 0 42.969 0 42.969 0c10.416 0 19.205 2.93 26.367 8.789c7.161 5.859 10.742 13.346 10.742 22.461c0 9.115 -3.581 16.602 -10.742 22.461c-7.162 5.859 -15.951 8.789 -26.367 8.789c0 0 -72.266 0 -72.266 0c-25.716 37.435 -59.245 67.708 -100.586 90.82c-40.69 22.787 -85.286 34.18 -133.789 34.18c-48.503 0 -93.099 -11.393 -133.789 -34.18c-41.341 -23.112 -74.87 -53.385 -100.586 -90.82c0 0 -197.266 0 -197.266 0c-10.416 0 -19.205 -2.93 -26.367 -8.789c-7.161 -5.859 -10.742 -13.346 -10.742 -22.461c0 0 0 0 0 0m253.906 -93.75c2.604 22.135 8.464 42.969 17.578 62.5c0 0 394.532 0 394.532 0c9.114 -19.531 14.974 -40.365 17.578 -62.5c0 0 -429.688 0 -429.688 0c0 0 0 0 0 0m0 -62.5c0 0 429.688 0 429.688 0c-7.813 -53.711 -31.901 -98.307 -72.266 -133.789c-40.69 -35.807 -88.216 -53.711 -142.578 -53.711c-58.268 0 -109.049 20.833 -152.344 62.5c0 0 152.344 0 152.344 0c9.115 0 16.602 2.93 22.461 8.789c5.859 5.859 8.789 13.346 8.789 22.461c0 9.115 -2.93 16.602 -8.789 22.461c-5.859 5.859 -13.346 8.789 -22.461 8.789c0 0 -197.266 0 -197.266 0c-9.114 19.531 -14.974 40.365 -17.578 62.5c0 0 0 0 0 0m62.5 187.5c43.295 41.667 94.076 62.5 152.344 62.5c58.268 0 109.049 -20.833 152.344 -62.5c0 0 -304.688 0 -304.688 0c0 0 0 0 0 0" />
  </g>
</svg>