<svg height="1000px" width="1000px" xmlns="http://www.w3.org/2000/svg">
  <g>
    <path d="M255.859375 494.140625c0 -69.01 24.74 -128.255 74.219 -177.734c26.041 -26.042 57.291 -45.573 93.75 -58.594c3.58 -1.302 6.998 -1.953 10.254 -1.953c7.812 0 14.892 3.255 21.24 9.765c6.348 6.511 9.521 13.835 9.521 21.973c0 3.581 -0.651 7.324 -1.953 11.231c-7.161 20.182 -10.579 40.69 -10.254 61.523c0 13.997 1.465 27.995 4.395 41.992c7.812 35.156 24.414 65.43 49.805 90.82c25.39 25.391 55.664 41.993 90.82 49.805c13.997 3.255 27.995 4.72 41.992 4.395c20.833 0 41.341 -3.418 61.524 -10.254c3.906 -1.302 7.649 -1.953 11.23 -1.953c8.138 0 15.462 3.255 21.973 9.765c6.51 6.511 9.765 13.509 9.765 20.996c0 3.256 -0.651 6.674 -1.953 10.254c-13.021 36.459 -32.552 67.709 -58.594 93.75c-49.479 49.479 -108.724 74.219 -177.734 74.219c-69.01 0 -127.93 -24.414 -176.758 -73.242c-48.828 -48.828 -73.242 -107.748 -73.242 -176.758c0 0 0 0 0 0m62.5 -0.977c0 51.758 18.229 96.355 54.688 133.789c36.132 36.133 79.752 54.2 130.859 54.2c4.232 0 8.463 -0.163 12.695 -0.489c56.966 -3.58 102.214 -27.343 135.742 -71.289c-6.51 0.326 -13.02 0.489 -19.531 0.489c-65.755 0 -122.64 -23.926 -170.654 -71.778c-48.014 -47.851 -72.022 -104.817 -72.022 -170.898c0 -6.511 0.163 -13.021 0.489 -19.531c-6.836 4.231 -12.696 8.789 -17.578 13.671c-36.459 36.459 -54.688 80.404 -54.688 131.836c0 0 0 0 0 0" />
  </g>
</svg>