<svg height="1000px" width="1000px" xmlns="http://www.w3.org/2000/svg">
  <g>
    <path d="M287.109375 493.1640625c0 -60.547 21.484 -112.305 64.453 -155.273c23.763 -22.136 51.107 -39.063 82.031 -50.782c-14.323 39.714 -16.927 80.078 -7.812 121.094c9.44 41.992 28.971 77.8 58.594 107.422c29.622 29.622 65.429 49.154 107.422 58.594c41.015 9.114 81.38 6.51 121.093 -7.813c-11.718 30.925 -28.646 58.268 -50.781 82.031c-42.969 42.969 -94.727 64.454 -155.273 64.454c-60.547 0 -112.305 -21.485 -155.274 -64.454c-42.969 -42.968 -64.453 -94.726 -64.453 -155.273c0 0 0 0 0 0" />
  </g>
</svg>