<svg height="1000" width="1000" xmlns="http://www.w3.org/2000/svg"><path d="M255.712 494.432q0 -103.456 74.176 -177.632 39.04 -39.04 93.696 -58.56 5.368 -1.952 10.248 -1.952 11.712 0 21.228 9.76t9.516 21.96q0 5.368 -1.952 11.224 -10.736 30.256 -10.248 61.488 0 20.984 4.392 41.968 11.712 52.704 49.776 90.768t90.768 49.776q20.984 4.88 41.968 4.392 31.232 0 61.488 -10.248 5.856 -1.952 11.224 -1.952 12.2 0 21.96 9.76t9.76 20.984q0 4.88 -1.952 10.248 -19.52 54.656 -58.56 93.696 -74.176 74.176 -177.632 74.176t-176.656 -73.2 -73.2 -176.656zm62.464 -.976q0 77.592 54.656 133.712 54.168 54.168 130.784 54.168 6.344 0 12.688 -.488 85.4 -5.368 135.664 -71.248 -9.76 .488 -19.52 .488 -98.576 0 -170.556 -71.736t-71.98 -170.8q0 -9.76 .488 -19.52 -10.248 6.344 -17.568 13.664 -54.656 54.656 -54.656 131.76z"/></svg>