<svg height="1000" width="1000" xmlns="http://www.w3.org/2000/svg"><path d="M0 344.128q0 -89.792 64.416 -154.208t154.208 -64.416q17.568 0 31.232 1.952 43.432 -61 109.312 -93.696 67.344 -33.184 140.544 -33.184t140.544 33.184q65.88 32.696 109.312 93.696 13.664 -1.952 31.232 -1.952 89.792 0 154.208 64.416t64.416 154.208 -64.416 154.208 -154.208 64.416q-41.48 0 -78.08 -13.664 -87.84 76.128 -203.008 76.128t-203.008 -76.128q-36.6 13.664 -78.08 13.664 -89.792 0 -154.208 -64.416t-64.416 -154.208zm59.536 392.352q-.976 -3.904 -.976 -7.32 0 -13.664 15.616 -18.056l23.424 -5.856q0 -11.712 5.856 -21.472l-17.568 -17.568q-6.832 -6.832 -6.832 -13.908t6.832 -14.396q7.32 -7.808 15.128 -7.808 6.832 0 14.152 6.832l17.568 17.568q9.272 -3.416 21.472 -5.856l5.856 -23.424q4.392 -15.128 17.08 -15.128 3.904 0 8.296 1.464 15.128 4.392 15.128 17.08 0 3.904 -1.464 8.296l-5.856 23.424q4.88 2.928 7.808 5.856 4.392 4.392 7.808 9.76l23.424 -7.808q2.928 -.488 5.856 -.488 14.64 0 19.52 16.104 1.464 4.392 1.464 7.808 0 13.176 -17.08 17.568l-23.424 5.856q0 11.712 -5.856 21.472l17.568 17.568q8.296 7.32 8.296 14.64 0 6.832 -7.32 13.664 -7.808 7.808 -15.616 7.808 -7.32 0 -14.64 -6.832l-15.616 -17.568q-11.224 3.416 -21.472 5.856l-7.808 23.424q-2.928 15.616 -16.592 15.616 -3.416 0 -7.808 -.976 -16.104 -3.904 -16.104 -17.568 0 -3.904 1.464 -8.784l5.856 -23.424q-7.32 -3.416 -15.616 -15.616l-23.424 7.808q-2.928 .488 -5.368 .488 -15.128 0 -19.032 -16.104zm2.928 -392.352q0 64.416 45.872 110.288t110.288 45.872q48.8 0 89.792 -29.28 76.128 91.744 191.296 91.744t191.296 -91.744q40.992 29.28 89.792 29.28 64.416 0 110.288 -45.872t45.872 -110.288 -45.872 -110.288 -110.288 -45.872q-31.232 0 -58.56 11.712 -32.696 -61.976 -91.744 -99.552 -58.072 -37.088 -130.784 -37.088t-130.784 37.088q-59.048 37.576 -91.744 99.552 -27.328 -11.712 -58.56 -11.712 -64.416 0 -110.288 45.872t-45.872 110.288zm81.008 380.64q7.32 6.832 14.64 6.832l14.64 -6.832q6.832 -6.832 6.832 -13.176 0 -6.832 -7.808 -14.152 -7.32 -8.296 -14.64 -8.296l-13.664 7.32q-7.32 7.32 -7.32 14.396t7.32 13.908zm203.984 162.992q3.904 -14.64 15.616 -20.496l35.136 -21.472q-1.952 -9.272 -1.952 -18.544t1.952 -18.544l-35.136 -19.52q-11.712 -7.808 -15.616 -21.472 -1.464 -4.88 -1.464 -9.272 0 -8.296 4.392 -17.08 6.832 -12.688 20.496 -16.592t27.328 3.904l35.136 21.472q13.664 -13.664 31.232 -19.52v-40.992q0 -13.664 10.736 -24.4t24.4 -10.736 24.4 10.736 10.736 24.4v40.992q17.568 5.856 31.232 19.52l35.136 -21.472q13.664 -7.808 27.328 -3.904t20.496 16.592q6.832 13.176 2.928 26.596t-15.616 21.228l-35.136 19.52q1.952 9.272 1.952 18.544t-1.952 18.544l35.136 21.472q11.712 5.856 15.616 20.496t-2.928 26.352q-7.32 12.2 -20.74 15.616t-27.084 -3.904l-35.136 -19.52q-14.152 11.712 -31.232 17.568v40.992q0 15.128 -10.492 25.132t-24.644 10.004 -24.644 -10.004 -10.492 -25.132v-40.992q-17.08 -5.856 -31.232 -17.568l-35.136 19.52q-13.664 7.32 -27.084 3.904t-20.74 -15.616q-4.392 -7.32 -4.392 -16.104 0 -4.88 1.464 -10.248zm117.12 -60.512q0 14.64 10.736 24.4t24.4 9.76 23.424 -9.76q11.712 -9.76 11.712 -24.4t-10.736 -24.4 -24.4 -9.76 -24.4 9.76 -10.736 24.4zm277.184 -81.008q4.392 -15.128 17.08 -15.128 3.904 0 8.296 1.464l23.424 5.856q3.416 -5.368 7.808 -9.76 2.928 -2.928 7.808 -5.856l-5.856 -23.424q-1.464 -4.392 -1.464 -8.296 0 -12.688 15.128 -17.08 4.392 -1.464 8.296 -1.464 12.688 0 17.08 15.128l5.856 23.424q12.2 2.44 21.472 5.856l17.568 -17.568q7.32 -6.832 14.152 -6.832 7.808 0 15.128 7.808 6.832 7.32 6.832 14.396t-6.832 13.908l-17.568 17.568q5.856 9.76 5.856 21.472l23.424 5.856q15.616 4.88 15.616 18.056 0 3.416 -.976 7.32 -3.904 16.104 -19.032 16.104 -2.44 0 -5.368 -.488l-23.424 -7.808q-8.296 12.2 -15.616 15.616l5.856 23.424q1.464 4.88 1.464 8.784 0 13.664 -16.104 17.568 -4.392 .976 -7.808 .976 -13.176 0 -16.592 -15.616l-7.808 -23.424q-12.2 -2.44 -21.472 -5.856l-15.616 17.568q-7.32 6.832 -14.64 6.832 -7.808 0 -15.616 -7.808 -7.32 -6.832 -7.32 -13.664 0 -7.32 8.296 -14.64l17.568 -17.568q-5.856 -9.272 -5.856 -21.472l-23.424 -5.856q-17.08 -4.392 -17.08 -17.568 0 -3.416 1.464 -7.808zm84.912 40.992q7.32 6.832 14.64 6.832l14.64 -6.832q6.832 -6.832 6.832 -13.176 0 -6.832 -7.808 -14.152 -7.32 -8.296 -14.64 -8.296l-13.664 7.32q-7.32 7.32 -7.32 14.396t7.32 13.908z"/></svg>