<svg height="1000" width="1000" xmlns="http://www.w3.org/2000/svg"><path d="M0 344.128q0 -89.792 64.416 -154.208t154.208 -64.416q17.568 0 31.232 1.952 43.432 -61 109.312 -93.696 67.344 -33.184 140.544 -33.184t140.544 33.184q65.88 32.696 109.312 93.696 13.664 -1.952 31.232 -1.952 89.792 0 154.208 64.416t64.416 154.208 -64.416 154.208 -154.208 64.416q-41.48 0 -78.08 -13.664 -87.84 76.128 -203.008 76.128t-203.008 -76.128q-36.6 13.664 -78.08 13.664 -89.792 0 -154.208 -64.416t-64.416 -154.208zm347.456 543.632q3.904 -14.64 15.616 -20.496l35.136 -21.472q-3.416 -18.544 0 -37.088l-35.136 -19.52q-11.712 -7.808 -15.616 -21.228t2.928 -26.596q6.832 -12.688 20.496 -16.592t27.328 3.904l35.136 21.472q13.664 -13.664 31.232 -19.52v-40.992q0 -13.664 10.736 -24.4t24.4 -10.736 24.4 10.736 10.736 24.4v40.992q17.568 5.856 31.232 19.52l35.136 -21.472q13.664 -7.808 27.328 -3.904t20.496 16.592q6.832 13.176 2.928 26.596t-15.616 21.228l-35.136 19.52q3.416 18.544 0 37.088l35.136 21.472q11.712 5.856 15.616 20.496t-2.928 26.352q-7.32 12.2 -20.74 15.616t-27.084 -3.904l-35.136 -19.52q-14.152 11.712 -31.232 17.568v40.992q0 15.128 -10.492 25.132t-24.644 10.004 -24.644 -10.004 -10.492 -25.132v-40.992q-17.08 -5.856 -31.232 -17.568l-35.136 19.52q-13.664 7.32 -27.084 3.904t-20.74 -15.616q-6.832 -11.712 -2.928 -26.352zm117.12 -60.512q0 14.64 10.736 24.4t24.4 9.76 23.424 -9.76q11.712 -9.76 11.712 -24.4t-10.736 -24.4 -24.4 -9.76 -24.4 9.76 -10.736 24.4z"/></svg>