<svg height="1000px" width="1000px" xmlns="http://www.w3.org/2000/svg">
  <g>
    <path d="M0 343.75c0 -59.896 21.484 -111.328 64.453 -154.297c42.969 -42.969 94.401 -64.453 154.297 -64.453c11.719 0 22.135 0.651 31.25 1.953c28.971 -40.69 65.43 -71.94 109.375 -93.75c44.922 -22.135 91.797 -33.203 140.625 -33.203c48.828 0 95.703 11.068 140.625 33.203c43.945 21.81 80.404 53.06 109.375 93.75c9.115 -1.302 19.531 -1.953 31.25 -1.953c59.896 0 111.328 21.484 154.297 64.453c42.969 42.969 64.453 94.401 64.453 154.297c0 59.896 -21.484 111.328 -64.453 154.297c-42.969 42.969 -94.401 64.453 -154.297 64.453c-27.669 0 -53.711 -4.557 -78.125 -13.672c-58.594 50.781 -126.302 76.172 -203.125 76.172c-76.823 0 -144.531 -25.391 -203.125 -76.172c-24.414 9.115 -50.456 13.672 -78.125 13.672c-59.896 0 -111.328 -21.484 -154.297 -64.453c-42.969 -42.969 -64.453 -94.401 -64.453 -154.297c0 0 0 0 0 0m347.656 543.945c2.604 -9.765 7.813 -16.601 15.625 -20.508c0 0 35.156 -21.484 35.156 -21.484c-2.278 -12.37 -2.278 -24.739 0 -37.109c0 0 -35.156 -19.531 -35.156 -19.531c-7.812 -5.209 -13.021 -12.289 -15.625 -21.241c-2.604 -8.952 -1.627 -17.822 2.93 -26.611c4.557 -8.464 11.393 -13.997 20.508 -16.602c9.114 -2.604 18.229 -1.302 27.344 3.907c0 0 35.156 21.484 35.156 21.484c9.114 -9.115 19.531 -15.625 31.25 -19.531c0 0 0 -41.016 0 -41.016c0 -9.114 3.58 -17.252 10.742 -24.414c7.161 -7.161 15.299 -10.742 24.414 -10.742c9.115 0 17.253 3.581 24.414 10.742c7.162 7.162 10.742 15.3 10.742 24.414c0 0 0 41.016 0 41.016c11.719 3.906 22.136 10.416 31.25 19.531c0 0 35.157 -21.484 35.157 -21.484c9.114 -5.209 18.229 -6.511 27.343 -3.907c9.115 2.605 15.951 8.138 20.508 16.602c4.557 8.789 5.534 17.659 2.93 26.611c-2.604 8.952 -7.813 16.032 -15.625 21.24c0 0 -35.156 19.532 -35.156 19.532c2.278 12.37 2.278 24.739 0 37.109c0 0 35.156 21.484 35.156 21.484c7.812 3.907 13.021 10.743 15.625 20.508c2.604 9.766 1.627 18.555 -2.93 26.367c-4.883 8.139 -11.8 13.347 -20.752 15.625c-8.952 2.279 -17.985 0.977 -27.1 -3.906c0 0 -35.156 -19.531 -35.156 -19.531c-9.44 7.812 -19.857 13.672 -31.25 17.578c0 0 0 41.016 0 41.016c0 10.091 -3.499 18.473 -10.498 25.146c-6.998 6.673 -15.218 10.01 -24.658 10.01c-9.44 0 -17.66 -3.337 -24.658 -10.01c-6.999 -6.673 -10.498 -15.055 -10.498 -25.146c0 0 0 -41.016 0 -41.016c-11.393 -3.906 -21.81 -9.766 -31.25 -17.578c0 0 -35.156 19.531 -35.156 19.531c-9.115 4.883 -18.148 6.185 -27.1 3.906c-8.952 -2.278 -15.869 -7.486 -20.752 -15.625c-4.557 -7.812 -5.534 -16.601 -2.93 -26.367c0 0 0 0 0 0m117.188 -60.547c0 9.766 3.58 17.904 10.742 24.414c7.161 6.511 15.299 9.766 24.414 9.766c9.115 0 16.927 -3.255 23.438 -9.766c7.812 -6.51 11.718 -14.648 11.718 -24.414c0 -9.765 -3.58 -17.903 -10.742 -24.414c-7.161 -6.51 -15.299 -9.765 -24.414 -9.765c-9.115 0 -17.253 3.255 -24.414 9.765c-7.162 6.511 -10.742 14.649 -10.742 24.414c0 0 0 0 0 0" />
  </g>
</svg>