<svg height="1000px" width="1000px" xmlns="http://www.w3.org/2000/svg">
  <g>
    <path d="M223.6328125 609.375c4.232 -16.602 13.672 -29.622 28.32 -39.063c0 0 64.453 -37.109 64.453 -37.109c-2.604 -11.068 -3.906 -22.298 -3.906 -33.691c0 -11.394 1.302 -22.949 3.906 -34.668c0 0 -64.453 -35.156 -64.453 -35.156c-14.648 -9.441 -24.088 -22.461 -28.32 -39.063c-1.302 -5.859 -1.953 -11.556 -1.953 -17.09c0 -10.742 2.604 -20.996 7.812 -30.762c8.138 -14.974 20.834 -24.414 38.086 -28.32c5.534 -1.302 11.068 -1.953 16.602 -1.953c10.742 0 20.833 2.604 30.273 7.813c0 0 64.453 37.109 64.453 37.109c18.555 -14.323 38.086 -25.391 58.594 -33.203c0 0 0 -74.219 0 -74.219c0 -16.927 6.185 -31.576 18.555 -43.945c12.37 -12.37 27.018 -18.555 43.945 -18.555c16.927 0 31.576 6.185 43.945 18.555c12.37 12.369 18.555 27.018 18.555 43.945c0 0 0 74.219 0 74.219c20.508 7.812 40.039 18.88 58.594 33.203c0 0 64.453 -37.109 64.453 -37.109c8.789 -4.883 18.229 -7.325 28.32 -7.325c5.86 0 12.045 0.814 18.555 2.442c16.927 4.231 29.622 13.672 38.086 28.32c5.534 9.44 8.301 19.368 8.301 29.785c0 5.534 -0.814 11.231 -2.442 17.09c-4.231 16.602 -13.672 29.622 -28.32 39.063c0 0 -64.453 37.109 -64.453 37.109c2.604 11.068 3.906 22.135 3.906 33.203c0 11.068 -1.302 22.135 -3.906 33.203c0 0 64.453 37.11 64.453 37.11c14.649 9.44 24.089 22.46 28.32 39.062c1.628 5.859 2.442 11.556 2.442 17.09c0 10.417 -2.767 20.345 -8.301 29.785c-8.464 14.648 -21.159 24.089 -38.086 28.32c-6.51 1.628 -12.695 2.442 -18.555 2.442c-10.091 0 -19.531 -2.442 -28.32 -7.324c0 0 -64.453 -37.11 -64.453 -37.11c-17.578 14.323 -37.109 25.391 -58.594 33.203c0 0 0 74.219 0 74.219c0 16.927 -6.185 31.576 -18.554 43.945c-12.37 12.37 -27.019 18.555 -43.946 18.555c-16.927 0 -31.575 -6.185 -43.945 -18.555c-12.37 -12.369 -18.555 -27.018 -18.555 -43.945c0 0 0 -74.219 0 -74.219c-20.508 -7.812 -40.039 -18.88 -58.594 -33.203c0 0 -64.453 37.11 -64.453 37.11c-8.789 4.882 -18.229 7.324 -28.32 7.324c-5.859 0 -12.044 -0.814 -18.555 -2.442c-16.927 -4.231 -29.622 -13.672 -38.086 -28.32c-5.533 -9.44 -8.3 -19.368 -8.3 -29.785c0 -5.534 0.813 -11.231 2.441 -17.09c0 0 0 0 0 0m213.867 -109.375c0 16.927 5.86 31.901 17.578 44.922c13.021 11.719 27.995 17.578 44.922 17.578c16.927 0 31.576 -6.185 43.946 -18.555c12.369 -12.369 18.554 -27.018 18.554 -43.945c0 -16.927 -6.185 -31.576 -18.554 -43.945c-12.37 -12.37 -27.019 -18.555 -43.946 -18.555c-16.927 0 -31.575 6.185 -43.945 18.555c-12.37 12.369 -18.555 27.018 -18.555 43.945c0 0 0 0 0 0" />
  </g>
</svg>