<svg height="1000" width="1000" xmlns="http://www.w3.org/2000/svg"><path d="M0 344.128q0 -89.792 64.416 -154.208t154.208 -64.416q17.568 0 31.232 1.952 43.432 -61 109.312 -93.696 67.344 -33.184 140.544 -33.184t140.544 33.184q65.88 32.696 109.312 93.696 13.664 -1.952 31.232 -1.952 89.792 0 154.208 64.416t64.416 154.208 -64.416 154.208 -154.208 64.416q-41.48 0 -78.08 -13.664 -87.84 76.128 -203.008 76.128t-203.008 -76.128q-36.6 13.664 -78.08 13.664 -89.792 0 -154.208 -64.416t-64.416 -154.208zm59.536 392.352q-4.88 -19.52 14.64 -25.376l23.424 -5.856q0 -11.712 5.856 -21.472l-17.568 -17.568q-13.664 -13.664 0 -28.304 14.152 -14.64 29.28 -.976l17.568 17.568q9.272 -3.416 21.472 -5.856l5.856 -23.424q5.856 -19.52 25.376 -13.664t13.664 25.376l-5.856 23.424q4.88 2.928 7.808 5.856 4.392 4.392 7.808 9.76l23.424 -7.808q19.52 -3.416 25.376 15.616 5.856 19.52 -15.616 25.376l-23.424 5.856q0 11.712 -5.856 21.472l17.568 17.568q15.616 14.152 .976 28.304 -14.64 14.64 -30.256 .976l-15.616 -17.568q-11.224 3.416 -21.472 5.856l-7.808 23.424q-3.904 20.008 -24.4 14.64 -20.496 -4.88 -14.64 -26.352l5.856 -23.424q-7.32 -3.416 -15.616 -15.616l-23.424 7.808q-19.52 3.416 -24.4 -15.616zm83.936 -11.712q14.64 13.664 29.28 0 14.152 -13.664 -.976 -27.328 -14.152 -15.616 -28.304 -.976 -14.64 14.64 0 28.304zm203.984 162.992q3.904 -14.64 15.616 -20.496l35.136 -21.472q-3.416 -18.544 0 -37.088l-35.136 -19.52q-11.712 -7.808 -15.616 -21.228t2.928 -26.596q6.832 -12.688 20.496 -16.592t27.328 3.904l35.136 21.472q13.664 -13.664 31.232 -19.52v-40.992q0 -13.664 10.736 -24.4t24.4 -10.736 24.4 10.736 10.736 24.4v40.992q17.568 5.856 31.232 19.52l35.136 -21.472q13.664 -7.808 27.328 -3.904t20.496 16.592q6.832 13.176 2.928 26.596t-15.616 21.228l-35.136 19.52q3.416 18.544 0 37.088l35.136 21.472q11.712 5.856 15.616 20.496t-2.928 26.352q-7.32 12.2 -20.74 15.616t-27.084 -3.904l-35.136 -19.52q-14.152 11.712 -31.232 17.568v40.992q0 15.128 -10.492 25.132t-24.644 10.004 -24.644 -10.004 -10.492 -25.132v-40.992q-17.08 -5.856 -31.232 -17.568l-35.136 19.52q-13.664 7.32 -27.084 3.904t-20.74 -15.616q-6.832 -11.712 -2.928 -26.352zm117.12 -60.512q0 14.64 10.736 24.4t24.4 9.76 23.424 -9.76q11.712 -9.76 11.712 -24.4t-10.736 -24.4 -24.4 -9.76 -24.4 9.76 -10.736 24.4zm277.184 -81.008q5.856 -19.52 25.376 -13.664l23.424 5.856q3.416 -5.368 7.808 -9.76 2.928 -2.928 7.808 -5.856l-5.856 -23.424q-5.856 -19.52 13.664 -25.376t25.376 13.664l5.856 23.424q12.2 2.44 21.472 5.856l17.568 -17.568q15.128 -13.664 29.28 .976 13.664 14.64 0 28.304l-17.568 17.568q5.856 9.76 5.856 21.472l23.424 5.856q19.52 5.856 14.64 25.376 -4.88 19.032 -24.4 15.616l-23.424 -7.808q-8.296 12.2 -15.616 15.616l5.856 23.424q5.856 21.472 -14.64 26.352 -20.496 5.368 -24.4 -14.64l-7.808 -23.424q-12.2 -2.44 -21.472 -5.856l-15.616 17.568q-15.616 13.664 -30.256 -.976 -14.64 -14.152 .976 -28.304l17.568 -17.568q-5.856 -9.272 -5.856 -21.472l-23.424 -5.856q-21.472 -5.856 -15.616 -25.376zm84.912 40.992q14.64 13.664 29.28 0 14.152 -13.664 -.976 -27.328 -14.152 -15.616 -28.304 -.976 -14.64 14.64 0 28.304z"/></svg>