<svg height="1000" width="1000" xmlns="http://www.w3.org/2000/svg"><path d="M223.504 609.6q6.344 -24.888 28.304 -39.04l64.416 -37.088q-3.904 -16.592 -3.904 -33.672t3.904 -34.648l-64.416 -35.136q-21.96 -14.152 -28.304 -39.04 -1.952 -8.784 -1.952 -17.08 0 -16.104 7.808 -30.744 12.2 -22.448 38.064 -28.304 8.296 -1.952 16.592 -1.952 16.104 0 30.256 7.808l64.416 37.088q27.816 -21.472 58.56 -33.184v-74.176q0 -25.376 18.544 -43.92t43.92 -18.544 43.92 18.544 18.544 43.92v74.176q30.744 11.712 58.56 33.184l64.416 -37.088q13.176 -7.32 28.304 -7.32 8.784 0 18.544 2.44 25.376 6.344 38.064 28.304 8.296 14.152 8.296 29.768 0 8.296 -2.44 17.08 -6.344 24.888 -28.304 39.04l-64.416 37.088q3.904 16.592 3.904 33.184t-3.904 33.184l64.416 37.088q21.96 14.152 28.304 39.04 2.44 8.784 2.44 17.08 0 15.616 -8.296 29.768 -12.688 21.96 -38.064 28.304 -9.76 2.44 -18.544 2.44 -15.128 0 -28.304 -7.32l-64.416 -37.088q-26.352 21.472 -58.56 33.184v74.176q0 25.376 -18.544 43.92t-43.92 18.544 -43.92 -18.544 -18.544 -43.92v-74.176q-30.744 -11.712 -58.56 -33.184l-64.416 37.088q-13.176 7.32 -28.304 7.32 -8.784 0 -18.544 -2.44 -25.376 -6.344 -38.064 -28.304 -8.296 -14.152 -8.296 -29.768 0 -8.296 2.44 -17.08zm213.744 -109.312q0 25.376 17.568 44.896 19.52 17.568 44.896 17.568t43.92 -18.544 18.544 -43.92 -18.544 -43.92 -43.92 -18.544 -43.92 18.544 -18.544 43.92z"/></svg>