<svg height="1000px" width="1000px" xmlns="http://www.w3.org/2000/svg">
  <g>
    <path d="M93.75 500c0 -9.115 2.93 -16.602 8.789 -22.461c5.859 -5.859 13.346 -8.789 22.461 -8.789c0 0 62.5 0 62.5 0c9.115 0 16.602 2.93 22.461 8.789c5.859 5.859 8.789 13.346 8.789 22.461c0 9.115 -2.93 16.602 -8.789 22.461c-5.859 5.859 -13.346 8.789 -22.461 8.789c0 0 -62.5 0 -62.5 0c-9.115 0 -16.602 -2.93 -22.461 -8.789c-5.859 -5.859 -8.789 -13.346 -8.789 -22.461c0 0 0 0 0 0m119.141 287.109c-14.323 -14.323 -14.323 -29.296 0 -44.921c0 0 44.921 -42.969 44.921 -42.969c14.323 -14.323 28.646 -14.323 42.969 0c14.323 14.323 14.323 28.646 0 42.969c0 0 -42.969 44.921 -42.969 44.921c-15.625 14.323 -30.598 14.323 -44.921 0c0 0 0 0 0 0m0 -529.296c-14.323 -15.625 -14.323 -30.599 0 -44.922c14.323 -14.323 29.296 -14.323 44.921 0c0 0 42.969 44.922 42.969 44.922c14.323 14.322 14.323 28.645 0 42.968c-14.323 14.323 -28.646 14.323 -42.969 0c0 0 -44.921 -42.968 -44.921 -42.968m68.359 242.187c0 -59.896 21.484 -111.328 64.453 -154.297c42.969 -42.969 94.401 -64.453 154.297 -64.453c59.896 0 111.328 21.484 154.297 64.453c42.969 42.969 64.453 94.401 64.453 154.297c0 59.896 -21.484 111.328 -64.453 154.297c-42.969 42.969 -94.401 64.453 -154.297 64.453c-59.896 0 -111.328 -21.484 -154.297 -64.453c-42.969 -42.969 -64.453 -94.401 -64.453 -154.297c0 0 0 0 0 0m187.5 375c0 0 0 -62.5 0 -62.5c0 -9.115 2.93 -16.602 8.789 -22.461c5.859 -5.859 13.346 -8.789 22.461 -8.789c9.115 0 16.602 2.93 22.461 8.789c5.859 5.859 8.789 13.346 8.789 22.461c0 0 0 62.5 0 62.5c0 9.115 -2.93 16.602 -8.789 22.461c-5.859 5.859 -13.346 8.789 -22.461 8.789c-9.115 0 -16.602 -2.93 -22.461 -8.789c-5.859 -5.859 -8.789 -13.346 -8.789 -22.461c0 0 0 0 0 0m0 -687.5c0 0 0 -62.5 0 -62.5c0 -9.115 2.93 -16.602 8.789 -22.461c5.859 -5.859 13.346 -8.789 22.461 -8.789c9.115 0 16.602 2.93 22.461 8.789c5.859 5.859 8.789 13.346 8.789 22.461c0 0 0 62.5 0 62.5c0 9.115 -2.93 16.602 -8.789 22.461c-5.859 5.859 -13.346 8.789 -22.461 8.789c-9.115 0 -16.602 -2.93 -22.461 -8.789c-5.859 -5.859 -8.789 -13.346 -8.789 -22.461c0 0 0 0 0 0m229.492 511.719c14.974 -14.323 29.623 -14.323 43.946 0c0 0 44.921 42.969 44.921 42.969c14.323 15.625 14.323 30.598 0 44.921c-14.323 14.323 -29.297 14.323 -44.922 0c0 0 -42.968 -44.921 -42.968 -44.921c-15.951 -14.323 -16.276 -28.646 -0.977 -42.969c0 0 0 0 0 0m0 -398.438c-15.299 -14.323 -14.974 -28.646 0.977 -42.968c0 0 42.968 -44.922 42.968 -44.922c15.625 -14.323 30.599 -14.323 44.922 0c14.323 14.323 14.323 29.297 0 44.922c0 0 -44.922 42.968 -44.922 42.968c-14.322 14.323 -28.971 14.323 -43.945 0c0 0 0 0 0 0m83.008 199.219c0 -9.115 2.93 -16.602 8.789 -22.461c5.859 -5.859 13.346 -8.789 22.461 -8.789c0 0 62.5 0 62.5 0c9.115 0 16.602 2.93 22.461 8.789c5.859 5.859 8.789 13.346 8.789 22.461c0 9.115 -2.93 16.602 -8.789 22.461c-5.859 5.859 -13.346 8.789 -22.461 8.789c0 0 -62.5 0 -62.5 0c-9.115 0 -16.602 -2.93 -22.461 -8.789c-5.859 -5.859 -8.789 -13.346 -8.789 -22.461c0 0 0 0 0 0" />
  </g>
</svg>