<svg height="1000" width="1000" xmlns="http://www.w3.org/2000/svg"><path d="M93.696 500.288q0 -13.664 8.784 -22.448t22.448 -8.784h62.464q13.664 0 22.448 8.784t8.784 22.448 -8.784 22.448 -22.448 8.784h-62.464q-13.664 0 -22.448 -8.784t-8.784 -22.448zm119.072 286.944q-21.472 -21.472 0 -44.896l44.896 -42.944q21.472 -21.472 42.944 0t0 42.944l-42.944 44.896q-23.424 21.472 -44.896 0zm0 -528.992q-21.472 -23.424 0 -44.896t44.896 0l42.944 44.896q21.472 21.472 0 42.944t-42.944 0zm68.32 242.048q0 -89.792 64.416 -154.208t154.208 -64.416 154.208 64.416 64.416 154.208 -64.416 154.208 -154.208 64.416 -154.208 -64.416 -64.416 -154.208zm187.392 374.784v-62.464q0 -13.664 8.784 -22.448t22.448 -8.784 22.448 8.784 8.784 22.448v62.464q0 13.664 -8.784 22.448t-22.448 8.784 -22.448 -8.784 -8.784 -22.448zm0 -687.104v-62.464q0 -13.664 8.784 -22.448t22.448 -8.784 22.448 8.784 8.784 22.448v62.464q0 13.664 -8.784 22.448t-22.448 8.784 -22.448 -8.784 -8.784 -22.448zm229.36 511.424q22.448 -21.472 43.92 0l44.896 42.944q21.472 23.424 0 44.896t-44.896 0l-42.944 -44.896q-23.912 -21.472 -.976 -42.944zm0 -398.208q-22.936 -21.472 .976 -42.944l42.944 -44.896q23.424 -21.472 44.896 0t0 44.896l-44.896 42.944q-21.472 21.472 -43.92 0zm82.96 199.104q0 -13.664 8.784 -22.448t22.448 -8.784h62.464q13.664 0 22.448 8.784t8.784 22.448 -8.784 22.448 -22.448 8.784h-62.464q-13.664 0 -22.448 -8.784t-8.784 -22.448z"/></svg>