<svg height="1000px" width="1000px" xmlns="http://www.w3.org/2000/svg">
  <g>
    <path d="M93.75 500c0 -9.115 2.93 -16.602 8.789 -22.461c5.859 -5.859 13.346 -8.789 22.461 -8.789c0 0 62.5 0 62.5 0c9.115 0 16.602 2.93 22.461 8.789c5.859 5.859 8.789 13.346 8.789 22.461c0 9.115 -2.93 16.602 -8.789 22.461c-5.859 5.859 -13.346 8.789 -22.461 8.789c0 0 -62.5 0 -62.5 0c-9.115 0 -16.602 -2.93 -22.461 -8.789c-5.859 -5.859 -8.789 -13.346 -8.789 -22.461c0 0 0 0 0 0m119.141 287.109c-7.162 -7.161 -10.743 -14.485 -10.743 -21.972c0 -7.487 3.581 -15.137 10.743 -22.949c0 0 44.921 -42.969 44.921 -42.969c7.162 -8.138 14.486 -12.207 21.973 -12.207c0 0 20.996 11.23 20.996 11.23c7.162 7.487 10.742 14.893 10.742 22.217c0 7.324 -3.58 14.567 -10.742 21.729c0 0 -42.969 44.921 -42.969 44.921c-7.812 7.162 -15.462 10.743 -22.949 10.743c-7.487 0 -14.811 -3.581 -21.972 -10.743c0 0 0 0 0 0m0 -529.297c-7.162 -7.812 -10.743 -15.462 -10.743 -22.949c0 -7.487 3.581 -14.811 10.743 -21.972c7.161 -7.162 14.485 -10.743 21.972 -10.743c7.487 0 15.137 3.581 22.95 10.743c0 0 42.968 44.922 42.968 44.922c7.162 7.161 10.742 14.322 10.742 21.484c0 7.161 -3.58 14.323 -10.742 21.484c-7.161 7.162 -14.323 10.742 -21.484 10.742c0 0 -21.485 -10.742 -21.485 -10.742c0 0 -44.921 -42.968 -44.921 -42.968m68.359 242.187c0 -59.896 21.484 -111.328 64.453 -154.297c42.969 -42.969 94.401 -64.453 154.297 -64.453c59.896 0 111.328 21.484 154.297 64.453c42.969 42.969 64.453 94.401 64.453 154.297c0 59.896 -21.484 111.328 -64.453 154.297c-42.969 42.969 -94.401 64.453 -154.297 64.453c-59.896 0 -111.328 -21.484 -154.297 -64.453c-42.969 -42.969 -64.453 -94.401 -64.453 -154.297c0 0 0 0 0 0m62.5 0c0 42.969 15.299 79.753 45.898 110.352c30.599 30.599 67.383 45.898 110.352 45.898c42.969 0 79.427 -14.974 109.375 -44.922c31.25 -31.25 46.875 -68.359 46.875 -111.328c0 -42.969 -15.299 -79.753 -45.898 -110.352c-30.599 -30.599 -67.383 -45.898 -110.352 -45.898c-42.969 0 -79.753 15.299 -110.352 45.898c-30.599 30.599 -45.898 67.383 -45.898 110.352c0 0 0 0 0 0m125 375c0 0 0 -62.5 0 -62.5c0 -9.115 2.93 -16.602 8.789 -22.461c5.859 -5.859 13.346 -8.789 22.461 -8.789c9.115 0 16.602 2.93 22.461 8.789c5.859 5.859 8.789 13.346 8.789 22.461c0 0 0 62.5 0 62.5c0 9.115 -2.93 16.602 -8.789 22.461c-5.859 5.859 -13.346 8.789 -22.461 8.789c-9.115 0 -16.602 -2.93 -22.461 -8.789c-5.859 -5.859 -8.789 -13.346 -8.789 -22.461c0 0 0 0 0 0m0 -687.5c0 0 0 -62.5 0 -62.5c0 -9.115 2.93 -16.602 8.789 -22.461c5.859 -5.859 13.346 -8.789 22.461 -8.789c9.115 0 16.602 2.93 22.461 8.789c5.859 5.859 8.789 13.346 8.789 22.461c0 0 0 62.5 0 62.5c0 9.115 -2.93 16.602 -8.789 22.461c-5.859 5.859 -13.346 8.789 -22.461 8.789c-9.115 0 -16.602 -2.93 -22.461 -8.789c-5.859 -5.859 -8.789 -13.346 -8.789 -22.461c0 0 0 0 0 0m230.469 554.688c-7.162 -7.162 -10.742 -14.323 -10.742 -21.485c0 -7.161 3.58 -14.323 10.742 -21.484c7.161 -7.162 14.323 -10.742 21.484 -10.742c0 0 21.484 10.742 21.484 10.742c0 0 44.922 42.969 44.922 42.969c7.162 7.812 10.743 15.462 10.743 22.949c0 7.487 -3.581 14.811 -10.743 21.972c-7.161 7.162 -14.485 10.743 -21.972 10.743c-7.487 0 -15.137 -3.581 -22.95 -10.743c0 0 -42.968 -44.921 -42.968 -44.921m0 -441.407c-7.162 -7.161 -10.742 -14.323 -10.742 -21.484c0 -7.162 3.58 -14.323 10.742 -21.484c0 0 42.968 -44.922 42.968 -44.922c7.813 -7.162 15.463 -10.743 22.95 -10.743c7.487 0 14.811 3.581 21.972 10.743c7.162 7.161 10.743 14.485 10.743 21.972c0 7.487 -3.581 15.137 -10.743 22.95c0 0 -44.922 42.968 -44.922 42.968c-7.161 7.162 -14.322 10.742 -21.484 10.742c0 0 -21.484 -10.742 -21.484 -10.742m82.031 199.219c0 -9.115 2.93 -16.602 8.789 -22.461c5.859 -5.859 13.346 -8.789 22.461 -8.789c0 0 62.5 0 62.5 0c9.115 0 16.602 2.93 22.461 8.789c5.859 5.859 8.789 13.346 8.789 22.461c0 9.115 -2.93 16.602 -8.789 22.461c-5.859 5.859 -13.346 8.789 -22.461 8.789c0 0 -62.5 0 -62.5 0c-9.115 0 -16.602 -2.93 -22.461 -8.789c-5.859 -5.859 -8.789 -13.346 -8.789 -22.461c0 0 0 0 0 0" />
  </g>
</svg>