<svg height="1000" width="1000" xmlns="http://www.w3.org/2000/svg"><path d="M93.696 500.288q0 -13.664 8.784 -22.448t22.448 -8.784h62.464q13.664 0 22.448 8.784t8.784 22.448 -8.784 22.448 -22.448 8.784h-62.464q-13.664 0 -22.448 -8.784t-8.784 -22.448zm119.072 286.944q-10.736 -10.736 -10.736 -21.96t10.736 -22.936l44.896 -42.944q10.736 -12.2 21.96 -12.2l20.984 11.224q10.736 11.224 10.736 22.204t-10.736 21.716l-42.944 44.896q-11.712 10.736 -22.936 10.736t-21.96 -10.736zm0 -528.992q-10.736 -11.712 -10.736 -22.936t10.736 -21.96 21.96 -10.736 22.936 10.736l42.944 44.896q10.736 10.736 10.736 21.472t-10.736 21.472 -21.472 10.736l-21.472 -10.736zm68.32 242.048q0 -89.792 64.416 -154.208t154.208 -64.416 154.208 64.416 64.416 154.208 -64.416 154.208 -154.208 64.416 -154.208 -64.416 -64.416 -154.208zm62.464 0q0 64.416 45.872 110.288t110.288 45.872 109.312 -44.896q46.848 -46.848 46.848 -111.264t-45.872 -110.288 -110.288 -45.872 -110.288 45.872 -45.872 110.288zm124.928 374.784v-62.464q0 -13.664 8.784 -22.448t22.448 -8.784 22.448 8.784 8.784 22.448v62.464q0 13.664 -8.784 22.448t-22.448 8.784 -22.448 -8.784 -8.784 -22.448zm0 -687.104v-62.464q0 -13.664 8.784 -22.448t22.448 -8.784 22.448 8.784 8.784 22.448v62.464q0 13.664 -8.784 22.448t-22.448 8.784 -22.448 -8.784 -8.784 -22.448zm230.336 554.368q-10.736 -10.736 -10.736 -21.472t10.736 -21.472 21.472 -10.736l21.472 10.736 44.896 42.944q10.736 11.712 10.736 22.936t-10.736 21.96 -21.96 10.736 -22.936 -10.736zm0 -441.152q-10.736 -10.736 -10.736 -21.472t10.736 -21.472l42.944 -44.896q11.712 -10.736 22.936 -10.736t21.96 10.736 10.736 21.96 -10.736 22.936l-44.896 42.944q-10.736 10.736 -21.472 10.736zm81.984 199.104q0 -13.664 8.784 -22.448t22.448 -8.784h62.464q13.664 0 22.448 8.784t8.784 22.448 -8.784 22.448 -22.448 8.784h-62.464q-13.664 0 -22.448 -8.784t-8.784 -22.448z"/></svg>