<svg height="1000" width="1000" xmlns="http://www.w3.org/2000/svg"><path d="M212.768 351.936q-10.736 -11.712 -10.736 -22.936t10.736 -21.96 21.96 -10.736 22.936 10.736l42.944 44.896q10.736 10.736 10.736 21.472t-10.736 21.472 -21.472 10.736l-21.472 -10.736zm68.32 304.512q0 -13.664 8.784 -22.448t22.448 -8.784h374.784q13.664 0 22.448 8.784t8.784 22.448 -8.784 22.448 -22.448 8.784h-374.784q-13.664 0 -22.448 -8.784t-8.784 -22.448zm3.904 -93.696q11.712 -80.52 72.224 -133.712 61 -53.68 142.496 -53.68t142.496 53.68q60.512 53.192 72.224 133.712h-62.464q-9.272 -54.656 -52.704 -89.792 -42.944 -35.136 -99.552 -35.136t-99.552 35.136q-43.432 35.136 -52.704 89.792h-62.464zm58.56 218.624q0 -13.664 8.784 -22.448t22.448 -8.784h249.856q13.664 0 22.448 8.784t8.784 22.448 -8.784 22.448 -22.448 8.784h-249.856q-13.664 0 -22.448 -8.784t-8.784 -22.448zm124.928 -499.712v-62.464q0 -13.664 8.784 -22.448t22.448 -8.784 22.448 8.784 8.784 22.448v62.464q0 13.664 -8.784 22.448t-22.448 8.784 -22.448 -8.784 -8.784 -22.448zm230.336 113.216q-10.736 -10.736 -10.736 -21.472t10.736 -21.472l42.944 -44.896q11.712 -10.736 22.936 -10.736t21.96 10.736 10.736 21.96 -10.736 22.936l-44.896 42.944q-10.736 10.736 -21.472 10.736z"/></svg>