<svg height="1000px" width="1000px" xmlns="http://www.w3.org/2000/svg">
  <g>
    <path d="M212.890625 351.5625c-7.161 -7.813 -10.742 -15.462 -10.742 -22.949c0 -7.487 3.581 -14.811 10.742 -21.973c7.161 -7.161 14.486 -10.742 21.973 -10.742c7.487 0 15.136 3.581 22.949 10.742c0 0 42.969 44.922 42.969 44.922c7.161 7.161 10.742 14.323 10.742 21.484c0 7.162 -3.581 14.323 -10.742 21.485c-7.162 7.161 -14.323 10.742 -21.485 10.742c0 0 -21.484 -10.742 -21.484 -10.742c0 0 -44.922 -42.969 -44.922 -42.969m68.359 304.688c0 -9.115 2.93 -16.602 8.789 -22.461c5.86 -5.86 13.347 -8.789 22.461 -8.789c0 0 375 0 375 0c9.115 0 16.602 2.929 22.461 8.789c5.86 5.859 8.789 13.346 8.789 22.461c0 9.114 -2.929 16.601 -8.789 22.46c-5.859 5.86 -13.346 8.789 -22.461 8.789c0 0 -375 0 -375 0c-9.114 0 -16.601 -2.929 -22.461 -8.789c-5.859 -5.859 -8.789 -13.346 -8.789 -22.461c0 0 0 0 0 0m3.907 -93.75c7.812 -53.71 31.901 -98.307 72.265 -133.789c40.69 -35.807 88.216 -53.711 142.578 -53.711c54.362 0 101.888 17.904 142.578 53.711c40.365 35.482 64.454 80.079 72.266 133.789c0 0 -62.5 0 -62.5 0c-6.185 -36.458 -23.763 -66.406 -52.734 -89.843c-28.646 -23.438 -61.849 -35.156 -99.61 -35.156c-37.76 0 -70.963 11.718 -99.609 35.156c-28.971 23.437 -46.549 53.385 -52.734 89.844c0 0 -62.5 0 -62.5 0c0 0 0 0 0 0m58.593 218.75c0 -9.115 2.93 -16.602 8.789 -22.461c5.86 -5.86 13.347 -8.789 22.461 -8.789c0 0 250 0 250 0c9.115 0 16.602 2.929 22.461 8.789c5.86 5.859 8.789 13.346 8.789 22.461c0 9.114 -2.929 16.601 -8.789 22.46c-5.859 5.86 -13.346 8.789 -22.461 8.789c0 0 -250 0 -250 0c-9.114 0 -16.601 -2.929 -22.461 -8.789c-5.859 -5.859 -8.789 -13.346 -8.789 -22.461c0 0 0 0 0 0m125 -500c0 0 0 -62.5 0 -62.5c0 -9.114 2.93 -16.601 8.789 -22.46c5.86 -5.86 13.347 -8.79 22.461 -8.79c9.115 0 16.602 2.93 22.461 8.79c5.86 5.859 8.789 13.346 8.789 22.46c0 0 0 62.5 0 62.5c0 9.115 -2.929 16.602 -8.789 22.461c-5.859 5.86 -13.346 8.789 -22.461 8.789c-9.114 0 -16.601 -2.929 -22.461 -8.789c-5.859 -5.859 -8.789 -13.346 -8.789 -22.461c0 0 0 0 0 0m230.469 113.282c-7.161 -7.162 -10.742 -14.323 -10.742 -21.485c0 -7.161 3.581 -14.323 10.742 -21.484c0 0 42.969 -44.922 42.969 -44.922c7.812 -7.161 15.462 -10.742 22.949 -10.742c7.487 0 14.811 3.581 21.973 10.742c7.161 7.162 10.742 14.486 10.742 21.973c0 7.487 -3.581 15.137 -10.742 22.949c0 0 -44.922 42.969 -44.922 42.969c-7.162 7.161 -14.323 10.742 -21.484 10.742c0 0 -21.485 -10.742 -21.485 -10.742" />
  </g>
</svg>