<svg height="1000px" width="1000px" xmlns="http://www.w3.org/2000/svg">
  <g>
    <path d="M375 812.5c0 -48.177 20.833 -83.984 62.5 -107.422c0 0 0 -574.219 0 -574.219c0 -19.205 6.185 -35.481 18.555 -48.828c12.044 -13.021 26.692 -19.531 43.945 -19.531c17.253 0 31.901 6.51 43.945 19.531c12.37 13.347 18.555 29.623 18.555 48.828c0 0 0 574.219 0 574.219c41.667 23.438 62.5 59.245 62.5 107.422c0 33.854 -12.37 63.151 -37.109 87.891c-24.74 24.739 -54.362 37.109 -88.868 37.109c-34.83 0 -64.127 -12.37 -87.89 -37.109c-24.089 -25.065 -36.133 -54.362 -36.133 -87.891c0 0 0 0 0 0" />
  </g>
</svg>