<svg height="1000px" width="1000px" xmlns="http://www.w3.org/2000/svg">
  <g>
    <path d="M123.046875 656.25c0 -9.115 3.906 -16.602 11.719 -22.461c7.812 -5.859 17.578 -8.789 29.297 -8.789c0 0 480.468 0 480.468 0c0 0 9.766 0 9.766 0c26.042 0 48.177 9.115 66.406 27.344c18.229 18.229 27.344 40.364 27.344 66.406c0 26.042 -9.115 48.177 -27.344 66.406c-18.229 18.229 -40.364 27.344 -66.406 27.344c-26.042 0 -48.177 -9.115 -66.406 -27.344c-18.229 -18.229 -27.344 -40.364 -27.344 -66.406c0 -10.417 1.953 -20.833 5.859 -31.25c0 0 -402.343 0 -402.343 0c-11.719 0 -21.485 -2.93 -29.297 -8.789c-7.813 -5.859 -11.719 -13.346 -11.719 -22.461c0 0 0 0 0 0m0 -125c0 -9.115 2.93 -16.602 8.789 -22.461c5.859 -5.859 13.346 -8.789 22.461 -8.789c0 0 599.609 0 599.609 0c-3.906 -10.091 -5.859 -20.508 -5.859 -31.25c0 -26.042 9.115 -48.177 27.344 -66.406c18.229 -18.229 40.364 -27.344 66.406 -27.344c26.042 0 48.177 9.115 66.406 27.344c18.229 18.229 27.344 40.364 27.344 66.406c0 26.042 -9.115 48.177 -27.344 66.406c-18.229 18.229 -40.364 27.344 -66.406 27.344c0 0 -687.5 0 -687.5 0c-9.115 0 -16.602 -2.93 -22.461 -8.789c-5.859 -5.859 -8.789 -13.346 -8.789 -22.461c0 0 0 0 0 0m0 -125c0 -9.115 2.93 -16.602 8.789 -22.461c5.859 -5.859 13.346 -8.789 22.461 -8.789c0 0 287.109 0 287.109 0c-3.906 -10.417 -5.859 -20.833 -5.859 -31.25c0 -26.042 9.115 -48.177 27.344 -66.406c18.229 -18.229 40.364 -27.344 66.406 -27.344c26.042 0 48.177 9.115 66.406 27.344c18.229 18.229 27.344 40.364 27.344 66.406c0 26.042 -9.115 48.177 -27.344 66.406c-18.229 18.229 -40.364 27.344 -66.406 27.344c0 0 -375 0 -375 0c-9.115 0 -16.602 -2.93 -22.461 -8.789c-5.859 -5.859 -8.789 -13.346 -8.789 -22.461c0 0 0 0 0 0" />
  </g>
</svg>