<svg height="1000px" width="1000px" xmlns="http://www.w3.org/2000/svg">
  <g>
    <path d="M0 718.75c0 -9.115 2.93 -16.602 8.789 -22.461c5.859 -5.859 13.346 -8.789 22.461 -8.789c0 0 250 0 250 0c9.115 0 16.602 2.93 22.461 8.789c5.859 5.859 8.789 13.346 8.789 22.461c0 9.115 -2.93 16.602 -8.789 22.461c-5.859 5.859 -13.346 8.789 -22.461 8.789c0 0 -250 0 -250 0c-9.115 0 -16.602 -2.93 -22.461 -8.789c-5.859 -5.859 -8.789 -13.346 -8.789 -22.461c0 0 0 0 0 0m0 -125c0 -9.115 2.93 -16.602 8.789 -22.461c5.859 -5.859 13.346 -8.789 22.461 -8.789c0 0 125 0 125 0c9.115 0 16.602 2.93 22.461 8.789c5.859 5.859 8.789 13.346 8.789 22.461c0 9.115 -2.93 16.602 -8.789 22.461c-5.859 5.859 -13.346 8.789 -22.461 8.789c0 0 -125 0 -125 0c-9.115 0 -16.602 -2.93 -22.461 -8.789c-5.859 -5.859 -8.789 -13.346 -8.789 -22.461c0 0 0 0 0 0m62.5 -125c0 -9.115 2.93 -16.602 8.789 -22.461c5.859 -5.859 13.346 -8.789 22.461 -8.789c0 0 125 0 125 0c9.115 0 16.602 2.93 22.461 8.789c5.859 5.859 8.789 13.346 8.789 22.461c0 9.115 -2.93 16.602 -8.789 22.461c-5.859 5.859 -13.346 8.789 -22.461 8.789c0 0 -125 0 -125 0c-9.115 0 -16.602 -2.93 -22.461 -8.789c-5.859 -5.859 -8.789 -13.346 -8.789 -22.461c0 0 0 0 0 0m208.984 50.781c0 -52.083 17.904 -97.005 53.711 -134.765c35.808 -38.086 79.753 -58.269 131.836 -60.547c49.479 -50.781 109.05 -76.172 178.711 -76.172c69.662 0 129.232 25.391 178.711 76.172c52.083 2.278 96.029 22.461 131.836 60.547c35.807 37.76 53.711 82.682 53.711 134.765c0 53.386 -18.88 98.959 -56.641 136.719c-37.76 37.76 -83.984 56.641 -138.672 56.641c-11.718 0 -22.786 -0.651 -33.203 -1.953c-41.666 27.343 -86.914 41.015 -135.742 41.015c-48.828 0 -94.075 -13.672 -135.742 -41.015c-10.417 1.302 -22.135 1.953 -35.156 1.953c-53.386 0 -98.959 -18.881 -136.719 -56.641c-37.76 -37.76 -56.641 -83.333 -56.641 -136.719c0 0 0 0 0 0" />
  </g>
</svg>