<svg height="1000" width="1000" xmlns="http://www.w3.org/2000/svg"><path d="M122.976 656.448q0 -13.664 11.712 -22.448t29.28 -8.784h489.952q39.04 0 66.368 27.328t27.328 66.368 -27.328 66.368 -66.368 27.328 -66.368 -27.328 -27.328 -66.368q0 -15.616 5.856 -31.232h-402.112q-17.568 0 -29.28 -8.784t-11.712 -22.448zm0 -124.928q0 -13.664 8.784 -22.448t22.448 -8.784h599.264q-5.856 -15.128 -5.856 -31.232 0 -39.04 27.328 -66.368t66.368 -27.328 66.368 27.328 27.328 66.368 -27.328 66.368 -66.368 27.328h-687.104q-13.664 0 -22.448 -8.784t-8.784 -22.448zm0 -124.928q0 -13.664 8.784 -22.448t22.448 -8.784h286.944q-5.856 -15.616 -5.856 -31.232 0 -39.04 27.328 -66.368t66.368 -27.328 66.368 27.328 27.328 66.368 -27.328 66.368 -66.368 27.328h-374.784q-13.664 0 -22.448 -8.784t-8.784 -22.448z"/></svg>