<svg height="1000" width="1000" xmlns="http://www.w3.org/2000/svg"><path d="M0 532.496q0 -12.688 8.784 -21.472t22.448 -8.784h249.856q13.664 0 22.448 8.784t8.784 21.472q0 13.176 -9.028 22.692t-22.204 9.516h-249.856q-13.176 0 -22.204 -9.516t-9.028 -22.692zm0 -124.928q0 -12.688 8.784 -21.472t22.448 -8.784h124.928q13.664 0 22.448 8.784t8.784 21.472q0 13.176 -9.028 22.692t-22.204 9.516h-124.928q-13.176 0 -22.204 -9.516t-9.028 -22.692zm62.464 -124.928q0 -12.688 8.784 -21.472t22.448 -8.784h124.928q13.664 0 22.448 8.784t8.784 21.472q0 13.176 -9.028 22.692t-22.204 9.516h-124.928q-13.176 0 -22.204 -9.516t-9.028 -22.692zm208.864 49.776q0 -77.592 53.68 -133.712t131.76 -59.536q74.176 -76.128 178.608 -76.128t178.608 76.128q78.08 3.416 131.76 59.536t53.68 133.712q0 81.984 -56.608 138.592t-138.592 56.608q-17.568 0 -33.184 -1.952 -62.464 39.04 -135.664 39.04t-135.664 -39.04q-15.616 1.952 -35.136 1.952 -80.032 0 -136.64 -56.608t-56.608 -138.592zm165.92 417.728q0 -34.648 62.464 -124.928l15.616 23.424q17.568 26.84 31.232 54.656 15.616 32.208 15.616 46.848 0 25.376 -18.544 43.92t-43.92 18.544 -43.92 -18.544 -18.544 -43.92zm249.856 124.928q0 -34.648 62.464 -124.928l15.616 23.424q17.568 26.84 31.232 54.656 15.616 32.208 15.616 46.848 0 25.376 -18.544 43.92t-43.92 18.544 -43.92 -18.544 -18.544 -43.92z"/></svg>