<svg height="1000" width="1000" xmlns="http://www.w3.org/2000/svg"><path d="M0 718.912q0 -13.664 8.784 -22.448t22.448 -8.784h249.856q13.664 0 22.448 8.784t8.784 22.448 -8.784 22.448 -22.448 8.784h-249.856q-13.664 0 -22.448 -8.784t-8.784 -22.448zm0 -124.928q0 -13.664 8.784 -22.448t22.448 -8.784h124.928q13.664 0 22.448 8.784t8.784 22.448 -8.784 22.448 -22.448 8.784h-124.928q-13.664 0 -22.448 -8.784t-8.784 -22.448zm62.464 -124.928q0 -13.664 8.784 -22.448t22.448 -8.784h124.928q13.664 0 22.448 8.784t8.784 22.448 -8.784 22.448 -22.448 8.784h-124.928q-13.664 0 -22.448 -8.784t-8.784 -22.448zm208.864 50.752q0 -78.08 53.68 -134.688 53.68 -57.096 131.76 -60.512 74.176 -76.128 178.608 -76.128t178.608 76.128q78.08 3.416 131.76 60.512 53.68 56.608 53.68 134.688 0 80.032 -56.608 136.64t-138.592 56.608q-17.568 0 -33.184 -1.952 -62.464 40.992 -135.664 40.992t-135.664 -40.992q-15.616 1.952 -35.136 1.952 -80.032 0 -136.64 -56.608t-56.608 -136.64z"/></svg>